<svg width="149" height="186" viewBox="0 0 149 186" fill="none" xmlns="http://www.w3.org/2000/svg">
<ellipse cx="75" cy="69" rx="62" ry="59" fill="white"/>
<path d="M76.3674 184.555C75.5775 185.349 74.5423 185.39 73.393 184.671C71.2598 183.338 69.9165 182.266 69.2577 181.372C68.8642 180.842 67.5181 179.533 66.2633 178.467C65.0085 177.398 63.6738 176.116 63.2945 175.615C62.9152 175.117 62.4389 174.708 62.2365 174.708C62.0311 174.708 61.7089 174.436 61.5206 174.102C61.3324 173.768 60.6223 172.985 59.9407 172.363C59.2619 171.738 58.7058 171.094 58.7058 170.93C58.7058 170.766 57.4881 169.508 56.0023 168.135C54.5136 166.765 52.4289 164.662 51.368 163.469C50.3071 162.273 48.5076 160.27 47.3697 159.015C46.2318 157.76 45.3021 156.586 45.3021 156.406C45.3021 156.223 44.6918 155.496 43.9474 154.785C41.6888 152.639 36.1761 146.16 36.1761 145.657C36.1761 145.493 36.0592 145.358 35.9137 145.358C35.7711 145.358 35.0981 144.585 34.4165 143.643C33.7377 142.7 32.7168 141.397 32.1464 140.748C30.7747 139.181 27.0672 134.297 24.7173 130.952C18.2607 121.765 16.541 119.089 15.9364 117.287C15.751 116.733 15.3746 116.127 15.1008 115.941C14.4249 115.486 13.2785 113.585 12.2204 111.164C11.7413 110.063 11.2508 109.099 11.131 109.018C10.0444 108.294 5.16204 97.5179 4.40059 94.1656C4.1867 93.2205 3.73041 91.8418 3.38533 91.1013C2.55829 89.3296 1.15232 83.4381 1.31203 82.4176C1.38047 81.976 1.23218 81.2436 0.984064 80.7885C0.211208 79.3776 -0.216574 71.577 0.202651 66.5149C0.624727 61.3746 1.03254 58.7574 1.55728 57.7934C1.77402 57.3922 1.9537 56.3609 1.9537 55.4966C1.9537 54.5595 2.12196 53.7033 2.36722 53.3694C2.59537 53.0624 2.84918 52.4593 2.93188 52.0311C3.2627 50.3025 3.47089 49.6185 3.82452 49.0989C4.027 48.8027 4.28367 48.073 4.39204 47.4806C4.50041 46.8882 4.83123 46.0266 5.12497 45.5634C5.41871 45.103 5.66112 44.4002 5.66112 44.0071C5.66112 43.2505 9.20884 36.2361 9.67085 36.0826C9.81914 36.0315 9.93892 35.8322 9.93892 35.6384C9.93892 35.4445 10.1329 35.2156 10.3696 35.1321C10.6063 35.046 10.9456 34.6394 11.1282 34.2274C12.1748 31.8337 12.4001 31.4728 12.8478 31.4675C13.1758 31.4621 13.3954 31.1524 13.5237 30.5143C13.6264 29.9946 13.846 29.4911 14.0085 29.3941C14.1939 29.2864 14.2167 29.3537 14.0741 29.5745C13.9315 29.7899 13.9543 29.8626 14.134 29.7576C14.2937 29.6661 15.1407 28.5863 16.0191 27.3612C17.3538 25.4925 19.5412 22.956 20.411 22.264C22.0936 20.9258 24.7686 18.3651 24.7686 18.0931C24.7686 17.8992 25.1536 17.5519 25.6242 17.323C26.0947 17.0941 26.4797 16.9918 26.4797 17.0995C26.4797 17.2045 27.2184 16.5583 28.1196 15.6644C29.517 14.275 33.5267 11.2646 33.9773 11.2646C34.0572 11.2646 34.7901 10.8418 35.6057 10.3222C36.4214 9.80248 37.2769 9.37974 37.5079 9.37974C37.7361 9.37974 38.3549 9.07008 38.8797 8.69311C39.4044 8.31614 40.183 7.94725 40.6136 7.87186C41.0442 7.79915 42.0623 7.31987 42.878 6.80826C43.6965 6.29666 44.6433 5.8793 44.9855 5.8793C45.3306 5.8793 45.958 5.63966 46.3829 5.34616C47.4096 4.63531 50.1816 3.74135 52.2464 3.45324C53.1647 3.32399 54.1371 3.03049 54.4052 2.80162C55.0269 2.27117 61.1185 1.05409 64.8373 0.717515C70.3928 0.213991 80.8306 0.165525 83.9449 0.625966C88.8929 1.35567 90.1905 1.60339 91.2742 2.03152C91.8559 2.2604 92.586 2.38426 92.8997 2.30887C93.2163 2.23078 93.7039 2.33041 93.9834 2.53236C94.2658 2.7343 94.973 2.90394 95.5548 2.90932C96.1965 2.91471 97.0178 3.17859 97.6509 3.58248C98.2213 3.94868 99.1567 4.32296 99.7299 4.41182C100.303 4.50067 101.35 4.86149 102.057 5.20884C102.767 5.55888 103.922 5.90892 104.624 5.98701C105.536 6.08933 106.072 6.32628 106.486 6.81365C106.805 7.18793 107.319 7.49489 107.63 7.49489C107.94 7.49489 108.862 7.91763 109.674 8.43731C110.49 8.95699 111.303 9.37974 111.477 9.37974C111.654 9.37974 112.332 9.78363 112.985 10.2791C113.638 10.7745 114.785 11.4531 115.529 11.7843C116.274 12.1181 116.884 12.5059 116.884 12.6513C116.884 12.794 117.015 12.8344 117.175 12.7428C117.566 12.514 121.199 15.4086 124.612 18.6693C125.956 19.951 125.736 19.7491 127.864 21.6878C128.805 22.5441 129.894 23.64 130.288 24.1192C130.681 24.6012 131.406 25.2394 131.899 25.5383C132.538 25.926 132.757 26.2357 132.655 26.6019C132.558 26.9546 132.923 27.5308 133.824 28.4409C134.546 29.1679 135.136 29.9353 135.136 30.14C135.139 30.3473 135.458 30.8805 135.846 31.3247C136.234 31.769 136.878 32.7626 137.272 33.5327C137.668 34.3055 138.159 35.0325 138.361 35.1483C138.567 35.2668 139.037 35.8484 139.408 36.4408C139.779 37.0331 140.318 37.7359 140.603 37.9998C140.891 38.2637 141.125 38.7107 141.125 38.9934C141.125 39.2761 141.265 39.5858 141.433 39.6854C141.906 39.9627 142.873 42.238 143.024 43.4309C143.158 44.4837 143.911 45.9996 144.299 45.9996C144.407 45.9996 144.587 46.5139 144.698 47.144C144.809 47.7741 145.263 49.1473 145.702 50.2002C146.144 51.2503 146.655 52.8874 146.837 53.8352C147.022 54.783 147.407 56.5279 147.695 57.7126C149.31 64.3634 149.458 77.0512 147.961 80.3496C147.653 81.0309 147.399 81.9921 147.399 82.4903C147.399 82.9857 147.265 83.7235 147.102 84.1274C146.771 84.9487 146.62 85.8076 146.412 88.0398C146.167 90.6436 142.608 100.765 141.49 102.036C141.279 102.276 141.051 102.76 140.982 103.113C140.774 104.179 138.19 109.115 137.643 109.495C137.36 109.689 137.132 110.001 137.132 110.192C137.132 110.383 136.876 110.758 136.562 111.027C136.237 111.304 135.991 111.856 135.991 112.311C135.991 113.124 134.66 115.739 134.246 115.739C133.727 115.739 132.857 116.964 132.909 117.616C132.943 118.028 132.555 118.919 131.965 119.786C131.414 120.597 130.47 122.045 129.868 123.009C127.781 126.351 127.29 127.013 126.652 127.344C126.298 127.527 126.01 127.81 126.01 127.972C126.01 128.133 125.69 128.591 125.297 128.992C124.903 129.391 124.584 129.848 124.584 130.007C124.584 130.166 124.376 130.597 124.125 130.963C123.871 131.327 123.771 131.626 123.905 131.626C124.039 131.626 123.669 131.949 123.084 132.342C122.496 132.735 122.017 133.206 122.017 133.387C122.017 133.567 121.821 133.869 121.578 134.057C121.339 134.246 121.176 134.601 121.222 134.846C121.264 135.091 120.845 135.794 120.289 136.408C119.73 137.022 119.091 137.864 118.863 138.276C118.638 138.691 117.939 139.647 117.312 140.404C116.202 141.736 114.794 143.495 111.713 147.378C110.892 148.414 109.603 149.922 108.847 150.73C108.092 151.538 107.473 152.348 107.473 152.531C107.473 152.717 107.088 153.081 106.617 153.344C106.147 153.606 105.685 154.047 105.593 154.322C105.499 154.596 105.365 154.769 105.294 154.701C105.046 154.467 102.873 156.726 103.015 157.074C103.092 157.268 102.913 157.634 102.613 157.89C102.314 158.145 102.134 158.455 102.214 158.579C102.294 158.7 101.949 158.902 101.447 159.023C100.945 159.147 100.397 159.486 100.232 159.774C99.3792 161.266 98.3553 162.61 97.0035 164.015C96.1765 164.874 95.532 165.669 95.5691 165.784C95.6945 166.169 91.4766 170.13 90.9405 170.13C90.7808 170.13 90.6467 170.262 90.6467 170.426C90.6467 170.758 88.3025 173.246 83.6597 177.839C81.9343 179.546 80.4542 181.122 80.3715 181.34C80.2888 181.558 79.918 181.881 79.5473 182.059C79.1794 182.236 78.8856 182.503 78.8971 182.651C78.9341 183.085 77.7307 184.159 77.3571 184.024C77.1717 183.957 76.7268 184.197 76.3674 184.555ZM69.4003 128.542C70.1076 128.992 70.3129 129.011 70.5525 128.645C70.6751 128.459 72.2237 128.367 74.9187 128.386C77.5795 128.405 80.0293 128.262 81.6634 127.993C83.075 127.759 85.0628 127.495 86.0838 127.406C87.1047 127.317 88.4137 127.018 88.9955 126.744C89.5773 126.466 90.1962 126.24 90.3673 126.24C90.5412 126.24 92.047 125.756 93.7096 125.163C95.3751 124.571 96.9893 124.086 97.2944 124.086C97.6024 124.086 98.15 123.785 98.5122 123.416C99.0255 122.891 99.3506 122.78 100.007 122.904C100.694 123.036 101.05 122.893 101.949 122.129C102.556 121.617 103.329 121.114 103.668 121.014C104.005 120.917 104.356 120.658 104.444 120.44C104.53 120.225 104.863 120.047 105.183 120.047C105.502 120.047 105.762 119.931 105.762 119.789C105.762 119.436 109.66 116.738 111.443 115.86C112.29 115.443 112.891 114.961 112.891 114.702C112.894 114.457 113.975 113.256 115.298 112.031C121.521 106.266 126.306 99.3327 129.677 91.1956C130.658 88.8234 130.761 88.6026 131.292 87.7355C131.52 87.364 131.708 86.6962 131.711 86.2465C131.711 85.7995 131.89 85.1937 132.107 84.9002C132.549 84.3051 132.606 83.9228 133.276 77.0996C133.978 69.9911 133.43 62.2901 131.859 57.1229C131.488 55.9112 131.257 54.6646 131.343 54.3549C131.434 54.0291 131.306 53.5875 131.038 53.3075C130.781 53.0409 130.139 51.6461 129.609 50.2055C129.076 48.765 128.562 47.5129 128.468 47.4213C128.371 47.3298 128.291 46.9744 128.291 46.627C128.291 46.2824 128.066 45.7842 127.792 45.5203C127.519 45.2592 126.278 43.447 125.037 41.4948C122.228 37.0735 119.704 34.0685 115.535 30.1804C113.75 28.5136 112.358 27.0461 112.441 26.9142C112.526 26.785 112.201 26.6046 111.716 26.513C111.083 26.3918 110.881 26.2303 110.998 25.9395C111.109 25.6675 110.986 25.5356 110.621 25.5356C110.325 25.5356 109.846 25.2528 109.557 24.9082C109.087 24.3427 107.464 23.3815 106.332 22.9937C106.095 22.9129 105.653 22.6948 105.345 22.509C102.975 21.0739 97.899 18.5347 97.4057 18.5347C97.2374 18.5347 96.5729 18.2924 95.9256 17.9989C95.281 17.7027 93.6783 17.1561 92.3636 16.7872C91.0517 16.4156 89.6828 15.9309 89.3235 15.7074C88.9641 15.4866 88.4023 15.3035 88.0772 15.3035C87.7492 15.3035 87.1361 15.1366 86.7112 14.932C86.1921 14.6815 84.8346 14.5523 82.5446 14.5388C80.6738 14.5281 79.071 14.4096 78.9798 14.2776C78.2668 13.2437 65.3507 14.4096 59.1336 16.0683C55.4633 17.0457 50.5695 18.637 50.0704 19.014C49.8793 19.1567 48.9239 19.6468 47.9486 20.0991C42.9293 22.4283 40.2999 24.0627 36.3558 27.3073C32.597 30.3958 29.4856 33.4196 27.7431 35.6761C26.8448 36.8366 25.7582 38.1506 25.3276 38.5949C24.3095 39.6423 22.3503 42.6985 22.1078 43.6247C22.0023 44.0205 21.6915 44.5564 21.4177 44.8122C20.2712 45.8865 19.6353 46.9582 19.6353 47.8145C19.6353 48.3126 19.4556 49.045 19.236 49.4462C17.5791 52.4754 15.5714 60.5183 15.0552 66.1944C14.5304 71.9567 15.2662 80.5274 16.6608 84.9352C16.9003 85.6918 17.1399 86.9304 17.1941 87.6898C17.2654 88.6941 17.4964 89.3 18.0382 89.9058C18.446 90.3636 18.7797 90.9506 18.7797 91.2117C18.7797 91.4729 18.8596 91.7584 18.9537 91.8499C19.3872 92.2592 20.9756 96.0989 20.7646 96.2254C20.4081 96.4301 21.0555 97.9676 21.4975 97.9676C22.1021 97.9676 22.7352 98.7215 22.5841 99.2627C22.5014 99.5616 22.9292 100.418 23.6792 101.444C24.358 102.37 25.1251 103.496 25.3903 103.943C25.6527 104.39 26.1347 105.025 26.4598 105.351C26.7849 105.679 27.0501 106.08 27.0501 106.247C27.0501 106.412 27.3068 106.624 27.6205 106.719C27.9342 106.813 28.208 107.001 28.2251 107.141C28.2451 107.279 28.2935 107.513 28.3335 107.661C28.3734 107.809 28.4219 108.043 28.4418 108.181C28.4589 108.321 28.8297 108.472 29.2603 108.517C29.691 108.566 30.0446 108.725 30.0474 108.873C30.0503 109.409 31.3222 111.046 32.3517 111.835C34.0828 113.162 35.8909 114.869 35.8909 115.176C35.8909 115.332 36.3386 115.639 36.8862 115.855C37.4338 116.07 38.1895 116.539 38.566 116.894C38.9424 117.25 39.6354 117.769 40.106 118.052C40.5765 118.335 41.6659 119.072 42.5243 119.692C43.3828 120.311 44.7117 121.111 45.4789 121.466C46.2432 121.824 47.9914 122.681 49.3631 123.37C50.7349 124.059 52.118 124.625 52.4374 124.625C52.7597 124.625 53.3415 124.824 53.735 125.066C54.1257 125.306 54.5164 125.438 54.6049 125.354C54.6933 125.271 55.3321 125.489 56.0279 125.839C56.7666 126.208 57.5851 126.421 58.0014 126.351C58.3921 126.283 59.4815 126.469 60.4255 126.76C61.3695 127.053 63.6453 127.492 65.4847 127.737C67.3242 127.982 69.0866 128.346 69.4003 128.542ZM67.5694 82.5441C66.9962 82.9615 66.7167 82.9615 65.8355 82.5441C64.9457 82.1241 64.1272 80.627 64.1158 79.3884C64.1101 78.8714 63.9219 78.1444 63.6966 77.7728C63.2432 77.0242 63.1433 72.8964 63.5255 70.7046C63.6481 70.0018 63.6852 69.4256 63.6082 69.4256C63.5283 69.4256 63.0435 69.7272 62.5302 70.0988C62.0169 70.4703 61.4722 70.7719 61.321 70.7719C60.6451 70.7719 60.7991 69.8833 61.6604 68.8198C62.4874 67.7992 62.7755 66.7599 62.1309 67.1342C62.0026 67.2096 61.9655 66.7868 62.0511 66.1944C62.1994 65.1389 62.1851 65.1174 61.3267 65.1174C60.8447 65.1174 60.3856 65.0151 60.3029 64.8912C60.0776 64.5465 57.1915 65.1847 56.7095 65.6882C55.5688 66.8757 47.3126 67.6835 43.1831 67.013C39.5841 66.426 36.5668 65.3786 35.2065 64.2423C34.8956 63.9838 34.4051 63.7711 34.1142 63.7711C33.3984 63.7711 32.1835 62.5836 32.1835 61.8835C32.1835 60.6476 35.3576 58.5446 37.5935 58.2996C40.5394 57.9738 54.391 59.7536 55.4946 60.5991C55.6886 60.7472 57.2599 60.9007 58.9882 60.9384C62.4389 61.0138 62.8525 60.7957 61.2725 59.7321C60.802 59.4171 60.417 59.0509 60.417 58.9243C60.417 58.4639 61.5777 58.3562 62.3962 58.7412C63.1719 59.1074 63.2717 59.0912 63.8421 58.5177C64.2328 58.1246 64.344 57.8392 64.1472 57.7261C63.6396 57.4299 63.7936 57.026 64.7318 56.1967C65.4534 55.5639 65.6672 55.1088 65.8355 53.8675C65.9524 53.022 66.0637 52.4674 66.0836 52.6397C66.1036 52.8147 66.3745 52.8874 66.7053 52.8066C67.2557 52.6693 67.2785 52.742 67.1017 54.0049C66.9221 55.2919 66.9449 55.3593 67.6579 55.5262C68.2254 55.6608 68.4079 55.8789 68.425 56.439C68.4621 57.7422 68.6446 58.2404 69.2577 58.7089C69.5857 58.9593 70.0563 59.0939 70.2987 59.0051C70.8092 58.822 71.3253 59.444 71.0059 59.8587C70.6095 60.3729 70.8206 60.9438 71.4423 61.0273C71.7816 61.073 74.0375 60.7984 76.4587 60.4214C78.8771 60.0417 81.4381 59.7321 82.151 59.7321C82.864 59.7321 83.9277 59.5436 84.5124 59.312C85.0999 59.0805 86.7511 58.8301 88.1856 58.7547C89.6172 58.6766 91.9244 58.5554 93.3132 58.48C95.7744 58.3508 95.8856 58.3696 97.8106 59.3093C98.8972 59.8371 99.9638 60.2706 100.178 60.2706C100.392 60.2706 100.643 60.451 100.731 60.6745C100.822 60.898 100.771 61.0784 100.62 61.0784C100.469 61.0784 100.363 61.17 100.389 61.2804C100.414 61.3908 100.349 61.695 100.246 61.9535L99.8697 62.896C99.767 63.1544 99.7043 63.4614 99.7299 63.5745C99.7556 63.6903 99.4219 63.9111 98.9913 64.0646C98.5578 64.2207 98.0131 64.5008 97.7764 64.6866C96.6813 65.5536 92.067 66.7383 87.9375 67.2122C85.2054 67.5273 82.0655 67.3119 80.8905 66.7357C80.2859 66.4368 79.2478 66.1944 78.5834 66.1944C77.9189 66.1944 76.4473 65.9521 75.3151 65.6559C72.9709 65.042 71.0744 64.9558 70.8919 65.454C70.8263 65.6397 70.9061 66.076 71.0715 66.426C71.3139 66.9322 71.2797 67.1261 70.9033 67.3846C70.4755 67.6808 70.4926 67.7804 71.1029 68.4993C71.5849 69.0675 71.6904 69.3852 71.4793 69.6275C71.2712 69.8645 71.2854 69.9641 71.5221 69.9641C71.7075 69.9641 71.7702 70.0988 71.6619 70.263C71.5221 70.4757 71.4109 70.473 71.2598 70.2442C71.1485 70.0691 70.8548 69.8995 70.6124 69.8672C70.37 69.8322 69.9422 69.6302 69.6656 69.4148C69.1979 69.054 69.175 69.0756 69.3661 69.6949C69.4773 70.0664 69.6456 71.6012 69.7397 73.1091C69.8709 75.2282 69.7939 76.2999 69.4089 77.8213C68.7045 80.5947 68.0942 82.1618 67.5694 82.5441ZM94.4968 109.244C92.8569 109.672 92.2324 109.619 91.6335 108.994C91.3426 108.692 90.6296 108.192 90.0507 107.885C88.7902 107.217 88.3653 106.439 88.3653 104.812C88.3653 103.216 88.9556 101.953 90.045 101.22C90.5327 100.892 90.9319 100.445 90.9319 100.229C90.9319 100.011 91.3825 99.5832 91.9301 99.2789C92.4776 98.9719 92.9282 98.6327 92.9282 98.5223C92.9282 98.4119 93.2334 98.1911 93.6041 98.0322C93.9777 97.8733 94.3627 97.4344 94.4625 97.0575C94.7648 95.9212 95.8058 94.4671 96.3191 94.4671C96.5843 94.4671 97.303 94.2248 97.919 93.9286C99.2594 93.2824 99.4676 93.2716 100.526 93.7913C100.973 94.0148 101.561 94.1952 101.832 94.1952C102.499 94.1979 104.339 95.7623 104.167 96.1824C104.025 96.5351 107.128 99.6693 107.895 99.9467C108.132 100.033 108.328 100.291 108.328 100.518C108.328 100.746 108.907 101.471 109.612 102.128C110.827 103.259 111.2 103.891 110.647 103.891C110.51 103.891 110.41 104.104 110.424 104.363C110.487 105.574 109.945 106.859 108.939 107.89C107.704 109.15 106.811 109.296 104.193 108.649C102.434 108.218 96.8695 108.218 96.3163 108.652C96.0995 108.822 95.86 108.959 95.7801 108.954C95.7003 108.948 95.1242 109.08 94.4968 109.244ZM95.84 90.9048C94.8761 91.3329 93.9207 91.3275 93.4473 90.8832C93.2391 90.6921 92.8512 90.4551 92.5803 90.3582C92.3122 90.2612 91.8873 89.782 91.6392 89.2946C91.3911 88.8072 90.9376 87.9833 90.6325 87.4663C89.8368 86.1146 89.9167 84.5044 90.8606 82.9023C91.2913 82.1672 91.9016 81.4375 92.2153 81.2759C93.0281 80.8639 95.8486 81.2759 95.9313 81.8225C96.0624 82.6545 97.2745 85.0187 97.8021 85.4683C98.3896 85.9692 98.5977 88.2741 98.0587 88.2741C97.899 88.2741 97.5026 88.7911 97.1775 89.4238C96.8524 90.0539 96.2507 90.7217 95.84 90.9048ZM105.779 90.6894C104.27 91.4514 101.681 90.4847 101.375 89.0469C101.293 88.6564 101.144 87.9887 101.047 87.5659C100.922 87.0301 100.951 86.9062 101.144 87.1647C101.384 87.4851 101.689 86.1738 101.92 83.8312C102.037 82.6195 103.392 81.4832 105.117 81.144C105.907 80.9878 106.249 81.1117 107.45 81.9921C108.548 82.7972 108.896 83.2442 109.044 84.0305C109.184 84.771 109.113 85.1479 108.782 85.463C108.237 85.9746 108.194 86.5669 108.685 86.7366C108.919 86.8174 108.736 87.1701 108.146 87.7679C107.655 88.2687 107.042 89.0684 106.788 89.545C106.534 90.0216 106.078 90.5359 105.779 90.6894ZM89.3634 97.5691C89.3634 97.9703 89.141 98.1237 88.4622 98.1857C87.9688 98.2288 87.4783 98.1399 87.3757 97.9837C87.2758 97.8276 86.8338 97.6983 86.3975 97.6983C85.4877 97.6983 84.6578 96.9686 84.6578 96.1716C84.6578 95.8727 84.3983 95.4069 84.0846 95.1376C83.691 94.801 83.5228 94.346 83.5542 93.6809C83.577 93.1504 83.5028 92.3453 83.3887 91.8903C83.2205 91.2171 83.3232 90.9048 83.9449 90.2074C84.5637 89.5127 84.9202 89.3511 85.8242 89.3511C86.4374 89.3511 86.9393 89.4723 86.9393 89.6204C86.9393 89.7685 87.1817 89.8897 87.4783 89.8897C87.832 89.8897 88.4166 90.4901 89.178 91.6399C89.8168 92.6038 90.4728 93.3901 90.6353 93.3901C90.8036 93.3901 90.9319 94.0229 90.9319 94.8576C90.9319 96.1904 90.8606 96.3547 90.1477 96.6778C89.6828 96.8905 89.3634 97.2513 89.3634 97.5691ZM112.834 98.0834C112.17 98.5223 111.251 98.5842 110.051 98.2665C109.526 98.1291 109.275 97.8006 109.053 96.9659C108.89 96.352 108.659 95.7623 108.542 95.6519C108.157 95.2938 108.314 93.1747 108.756 92.7546C108.993 92.5338 109.184 92.2269 109.184 92.0761C109.184 91.9226 109.788 91.3625 110.527 90.8321C111.636 90.0324 112.067 89.8789 113.011 89.9435C114.009 90.0135 114.266 90.1778 114.996 91.2091C115.712 92.2161 115.795 92.4988 115.544 93.1235C115.364 93.5732 115.35 94.0256 115.509 94.2921C115.7 94.6152 115.469 95.1107 114.62 96.1931C113.989 97.0009 113.185 97.8491 112.834 98.0834ZM76.1764 93.2312C75.9425 93.452 75.4577 93.4224 75.0185 93.1612C74.5594 92.8839 72.68 88.231 72.68 87.3694C72.68 86.4835 73.2504 85.0429 73.5983 85.0429C73.7751 85.0429 73.8207 84.7063 73.7124 84.192C73.6125 83.7235 73.7295 82.5441 73.9747 81.5667C74.6991 78.6587 74.9301 77.6839 75.1155 76.7657C75.3322 75.6914 75.6231 75.5002 76.3732 75.9418C76.7582 76.168 76.9036 76.4669 76.8038 76.8277C76.2648 78.7637 76.088 79.4961 75.663 81.5425C75.3379 83.0934 74.9757 84.0493 74.5337 84.5044C73.9776 85.0806 73.8949 85.428 73.9548 86.9358C74.0375 88.9876 74.2913 89.8897 74.7818 89.8897C75.164 89.8897 76.4502 92.97 76.1764 93.2312ZM57.4938 94.2437C56.1363 95.0595 56.1477 93.9152 57.5309 90.5628C58.1811 88.9822 58.4178 87.9644 58.4207 86.742C58.4207 85.8238 58.529 85.0106 58.6631 84.9325C59.0167 84.7252 60.0719 85.9692 60.1603 86.7016C60.2573 87.4824 59.9008 88.5433 59.5414 88.5433C59.1992 88.5433 59.1935 89.2784 59.5386 89.3969C59.8608 89.5073 57.9872 93.9502 57.4938 94.2437ZM49.9734 78.6264C49.5656 80.0454 49.346 80.4143 48.9353 80.3873C48.6473 80.3658 48.3536 80.2931 48.2823 80.2285C48.0313 79.9888 48.1625 79.041 48.6929 77.2773C48.9924 76.2891 49.3859 74.9563 49.5713 74.3101C49.7938 73.5319 50.0961 73.0876 50.4668 72.996C50.7776 72.9206 50.9773 72.7214 50.9145 72.5544C50.7377 72.0994 51.2539 71.3104 51.7302 71.3104C52.3262 71.3104 52.2435 71.919 51.5762 72.4602C50.9573 72.9583 50.8546 73.3434 51.271 73.5884C51.425 73.6773 51.3167 74.3908 51.0115 75.2875C50.7263 76.1357 50.2586 77.6382 49.9734 78.6264ZM76.0452 55.7335C75.8399 55.8547 75.3807 55.957 75.0214 55.957C74.4653 55.9624 74.4139 55.887 74.6649 55.4427C74.8274 55.1546 74.9615 54.3145 74.9615 53.5713C74.9615 52.8309 75.0898 52.1496 75.2467 52.0581C75.4178 51.9584 75.4606 51.3149 75.355 50.4721C75.1925 49.15 75.2353 49.01 75.9596 48.4715C76.915 47.7633 77.2886 47.9222 76.9635 48.8996C76.8295 49.3035 76.6498 50.9568 76.5671 52.5724C76.4644 54.5515 76.2933 55.5827 76.0452 55.7335ZM46.517 85.8776C44.5777 87.7598 44.4066 87.8783 44.0672 87.5551C43.6166 87.1324 43.956 86.4269 45.131 85.3391C45.8183 84.7009 46.6082 83.7101 46.882 83.1365C47.4381 81.9679 47.6748 81.976 48.1226 83.185C48.4192 83.9928 48.3621 84.087 46.517 85.8776ZM58.991 84.1005C58.991 84.7844 58.2239 84.5475 57.8959 83.7639C57.7276 83.3573 57.3911 82.2964 57.1516 81.4078C56.7266 79.838 56.7295 79.7788 57.3141 79.3211C57.6421 79.0626 58.0071 78.8498 58.1184 78.8498C58.2324 78.8498 58.5832 79.9404 58.8998 81.2732C59.2163 82.6061 59.3675 83.6966 59.2334 83.6966C59.0994 83.6966 58.991 83.877 58.991 84.1005ZM83.3118 75.9795C83.1606 76.7226 82.4334 77.1562 82.2252 76.623C80.9162 73.2626 80.939 71.2512 82.2765 72.0563C82.7357 72.331 83.4772 75.1501 83.3118 75.9795ZM58.5404 57.1445L58.5262 57.1499C58.2666 57.2441 58.1127 57.3006 57.9786 57.271C57.7875 57.2252 57.6392 56.9964 57.2771 56.4336C56.507 55.2408 56.5213 53.6521 57.3056 53.2563C57.6307 53.0921 57.9444 53.0005 58.0014 53.0517C58.0556 53.1055 58.1355 53.7248 58.1725 54.4303C58.2125 55.1358 58.4121 55.8439 58.6174 56.0055C59.1251 56.4013 59.088 56.9479 58.5404 57.1445ZM56.9919 52.0554C56.8578 51.98 56.6953 52.19 56.6268 52.5266C56.5584 52.8605 56.4842 52.3166 56.4643 51.3176C56.4415 50.3186 56.4186 49.4085 56.4101 49.2981C56.3873 48.9992 57.0803 48.9292 57.5023 49.185C57.7875 49.36 57.7989 49.702 57.548 50.8006C57.374 51.568 57.1231 52.1335 56.9919 52.0554ZM52.9365 101.953C52.9793 102.147 52.8396 102.537 52.6285 102.822C52.3462 103.202 52.1608 103.259 51.927 103.038C51.6931 102.817 51.7901 102.397 52.3005 101.449C52.6798 100.738 53.1076 100.092 53.2502 100.009C53.5639 99.8255 54.0544 100.396 53.9831 100.862C53.9518 101.048 53.9118 101.325 53.8919 101.479C53.8748 101.635 53.6324 101.726 53.3586 101.681C53.0705 101.635 52.8909 101.751 52.9365 101.953ZM59.801 72.926C59.6498 72.926 59.1564 73.3111 58.7001 73.7823C58.0128 74.4958 57.8417 74.5658 57.6934 74.1997C57.5765 73.9142 57.8988 73.3245 58.5975 72.5356C59.4987 71.5178 59.7468 71.3697 60.0605 71.6659C60.454 72.0375 60.2715 72.926 59.801 72.926ZM80.0948 71.1543C80.0948 71.3535 79.918 71.3266 78.5263 70.9227C77.6765 70.675 77.377 70.4407 77.3542 70.0072C77.3057 69.159 78.2525 69.2614 79.2621 70.2119C79.7184 70.6454 80.0948 71.0708 80.0948 71.1543ZM60.0747 68.2247C59.627 69.151 58.1355 69.0459 58.1355 68.0874C58.1355 67.7454 58.4121 67.5623 59.0623 67.4681C60.2829 67.293 60.4597 67.4277 60.0747 68.2247ZM55.0383 70.3357C54.2883 70.9739 53.2958 71.1085 53.0877 70.5969C52.8652 70.0449 53.5269 69.6572 54.4936 69.7729C54.9186 69.8268 55.3264 69.7379 55.3977 69.5791C55.4861 69.3771 55.5317 69.3798 55.546 69.5872C55.5574 69.7487 55.3292 70.0853 55.0383 70.3357ZM55.2836 99.015C55.2836 99.3327 54.6933 99.5105 54.0744 99.3785C53.6153 99.2843 53.6124 99.217 54.0288 98.4549C54.3368 97.8895 54.5678 97.7225 54.7731 97.9164C54.9357 98.0699 55.2779 98.1318 55.5317 98.0564C55.891 97.9487 55.9082 97.9757 55.6144 98.1749C55.4062 98.3149 55.2465 98.5088 55.2579 98.603C55.2722 98.6973 55.2836 98.8831 55.2836 99.015ZM50.0932 106.18C50.0932 107.125 49.6569 107.5 49.0009 107.117C48.6986 106.939 48.787 106.665 49.423 105.795C49.8651 105.192 50.2814 104.699 50.3499 104.699C50.4155 104.699 50.3841 104.828 50.2814 104.987C50.1788 105.143 50.0932 105.682 50.0932 106.18ZM55.9738 96.457C55.3378 96.6886 55.2836 96.6697 55.2836 96.2308C55.2836 95.6007 55.9167 94.4725 56.1819 94.626C56.6097 94.8764 56.45 96.2847 55.9738 96.457ZM78.7744 98.1103C79.014 98.7 77.551 98.7781 77.2202 98.1964C77.0604 97.9164 77.0063 97.5718 77.0975 97.4344C77.3029 97.1167 78.5805 97.6337 78.7744 98.1103ZM73.8036 67.5111C74.0118 67.8773 73.9919 68.1035 73.7352 68.3055C73.2047 68.7201 72.6743 68.2893 72.8654 67.5973C73.0678 66.8676 73.4215 66.8353 73.8036 67.5111ZM78.4465 46.0185C78.3324 46.0319 77.9531 46.0912 77.5995 46.1531C76.9407 46.2689 76.8095 46.0885 77.1774 45.5688C77.4654 45.1595 78.3295 45.2053 78.5063 45.6415C78.5862 45.8381 78.5577 46.0077 78.4465 46.0185ZM73.8207 72.6864C73.8207 72.9664 73.624 73.1953 73.3844 73.1953C72.891 73.1953 72.5374 72.5518 72.8055 72.1425C73.0821 71.7224 73.8207 72.1182 73.8207 72.6864ZM84.0361 78.9845C84.2129 79.3561 84.2671 79.6549 84.153 79.6496C83.6682 79.6307 82.9467 79.0626 82.9467 78.7017C82.9467 78.0663 83.6853 78.2575 84.0361 78.9845ZM74.1858 57.2953C74.3055 57.7315 74.2057 57.8257 73.6696 57.7853C73.3046 57.7557 73.0821 57.6157 73.1762 57.4757C73.276 57.3222 73.122 57.2953 72.7969 57.4137C72.4518 57.5376 72.3549 57.5161 72.5374 57.3545C72.6942 57.2145 73.0964 57.0233 73.43 56.9264C73.8835 56.7971 74.0717 56.8887 74.1858 57.2953ZM57.2599 75.4006C57.2485 75.5944 57.1288 75.9956 56.9947 76.2918C56.7751 76.7738 56.7466 76.7523 56.7295 76.106C56.7181 75.7075 56.8379 75.3063 56.9947 75.2148C57.1516 75.1232 57.2713 75.2067 57.2599 75.4006ZM79.5245 100.458C79.5245 100.668 79.3277 100.841 79.0881 100.841C78.5947 100.841 78.6689 100.345 79.1851 100.184C79.3733 100.124 79.5245 100.248 79.5245 100.458Z" fill="#3AA6AA"/>
<path d="M56.8835 80.32C56.8151 80.0615 56.7523 79.8111 56.6896 79.5795C55.7485 76.1006 55.8198 75.6456 57.6564 73.3891C58.5291 72.3202 59.8894 70.7234 60.6851 69.8402C62.0197 68.3593 62.3677 67.81 61.9741 67.81C61.6518 67.81 53.3985 71.6578 52.6685 72.1505C51.9812 72.6137 51.5106 73.5884 50.2843 77.5816C50.5324 76.7603 50.8148 75.8691 51.0115 75.2875C51.3167 74.3908 51.4251 73.6773 51.271 73.5884C50.8547 73.3434 50.9573 72.9583 51.5762 72.4602C52.2435 71.919 52.3262 71.3104 51.7302 71.3104C51.2539 71.3104 50.7378 72.0994 50.9146 72.5544C50.9773 72.7214 50.7777 72.9206 50.4668 72.996C50.0961 73.0876 49.7938 73.5319 49.5713 74.31C49.386 74.9563 48.9924 76.2891 48.693 77.2773C48.1625 79.041 48.0313 79.9888 48.2823 80.2284C48.3536 80.2931 48.6473 80.3658 48.9354 80.3873C49.2576 80.4089 49.4601 80.1881 49.7282 79.4126C49.6284 79.7492 49.5257 80.0992 49.4173 80.4654L48.3393 84.1005L47.6463 84.7521C48.3679 83.9847 48.3393 83.7747 48.1226 83.185C47.6749 81.976 47.4381 81.9679 46.882 83.1365C46.6083 83.71 45.8183 84.7009 45.131 85.3391C43.956 86.4269 43.6166 87.1324 44.0672 87.5551C44.1956 87.6763 44.2982 87.7355 44.4808 87.6628C42.1223 89.6688 39.0394 91.9064 37.2883 92.8354C36.4043 93.3039 36.1932 93.3308 35.9137 93.0131C35.6457 92.7061 36.0906 92.2753 38.2694 90.7297C39.7495 89.6796 42.2534 87.6574 43.8391 86.2357C46.1719 84.1409 46.7765 83.4354 47.0246 82.528C47.1929 81.9113 47.7633 80.075 48.2937 78.4459C48.827 76.8169 49.4715 74.6951 49.7282 73.7338C49.9849 72.7698 50.3813 71.7439 50.6094 71.4504C50.8347 71.1596 53.4784 69.7648 56.4814 68.3539C59.4816 66.9457 61.9941 65.6397 62.0568 65.4539C62.2736 64.84 60.032 65.0824 56.239 66.0867C55.9567 66.1621 55.6886 66.2294 55.4348 66.294C56.0536 66.1109 56.5014 65.9063 56.7096 65.6882C57.1915 65.1847 60.0776 64.5465 60.3029 64.8912C60.3856 65.015 60.8448 65.1174 61.3267 65.1174C62.1851 65.1174 62.1994 65.1389 62.0511 66.1944C61.9656 66.7868 62.0026 67.2095 62.131 67.1341C62.7755 66.7599 62.4874 67.7992 61.6604 68.8197C60.7991 69.8833 60.6451 70.7719 61.321 70.7719C61.4722 70.7719 62.0169 70.4703 62.5302 70.0987C62.8325 69.8806 63.1234 69.6895 63.3287 69.5656C62.3448 70.4515 58.3038 75.3009 58.03 75.9714C57.8646 76.378 58.1127 77.9209 58.8713 81.1493C58.5633 79.873 58.2296 78.8498 58.1184 78.8498C58.0072 78.8498 57.6421 79.0625 57.3142 79.321C56.912 79.6361 56.7837 79.7626 56.8835 80.32ZM141.051 38.6649C140.959 38.4306 140.794 38.1748 140.603 37.9998C140.318 37.7359 139.779 37.0331 139.408 36.4407C139.037 35.8484 138.567 35.2668 138.361 35.1483C138.159 35.0325 137.668 34.3055 137.272 33.5327C136.878 32.7626 136.234 31.769 135.846 31.3247C135.458 30.8804 135.139 30.3473 135.136 30.14C135.136 29.9353 134.546 29.1679 133.824 28.4409C132.923 27.5308 132.558 26.9546 132.655 26.6018C132.757 26.2356 132.538 25.926 131.899 25.5382C131.406 25.2394 130.681 24.6012 130.288 24.1192C129.894 23.6399 128.805 22.544 127.864 21.6878C125.736 19.7491 125.956 19.951 124.613 18.6693C121.199 15.4085 117.566 12.514 117.175 12.7428C117.015 12.8344 116.884 12.794 116.884 12.6513C116.884 12.5059 116.274 12.1181 115.529 11.7842C114.785 11.453 113.639 10.7745 112.985 10.2791C112.332 9.78361 111.654 9.37972 111.477 9.37972C111.303 9.37972 110.49 8.95697 109.674 8.43729C108.862 7.91761 107.94 7.49487 107.63 7.49487C107.319 7.49487 106.805 7.18791 106.486 6.81363C106.073 6.32627 105.536 6.08931 104.624 5.98699C103.922 5.9089 102.767 5.55886 102.057 5.20882C101.35 4.86147 100.303 4.50066 99.73 4.4118C99.1567 4.32294 98.2213 3.94866 97.651 3.58247C97.0178 3.17857 96.1965 2.91469 95.5548 2.90931C94.9731 2.90392 94.2658 2.73429 93.9835 2.53234C93.704 2.33039 93.2163 2.23076 92.8998 2.30885C92.5861 2.38424 91.856 2.26038 91.2742 2.03151C90.1905 1.60338 88.8929 1.35565 83.9449 0.625949C80.8307 0.165507 70.3928 0.213974 64.8374 0.717497C61.1185 1.05408 55.027 2.27115 54.4053 2.8016C54.1372 3.03048 53.1647 3.32397 52.2464 3.45322C51.3138 3.58247 50.2358 3.83557 49.2405 4.14254C50.2301 3.83288 51.0229 3.55285 51.1484 3.4613C52.0097 2.84199 61.4665 0.911366 66.5485 0.316293C71.3539 -0.246469 82.0256 -0.0283645 86.9394 0.733653C92.8028 1.64376 101.738 4.12907 104.843 5.71504C105.268 5.93314 106.386 6.42858 107.324 6.81632C109.583 7.75067 115.521 11.1138 117.312 12.4763C118.096 13.0713 119.123 13.7903 119.593 14.073C122.802 15.9982 129.963 22.7002 133.393 26.9842C136.55 30.9343 140.489 36.9766 141.051 38.6649ZM76.3675 184.555C76.7268 184.197 77.1717 183.957 77.3571 184.024C77.7307 184.159 78.9342 183.085 78.8971 182.651C78.8857 182.503 79.1794 182.236 79.5473 182.059C79.9181 181.881 80.2888 181.558 80.3715 181.34C80.4542 181.122 81.9343 179.546 83.6597 177.839C88.3025 173.246 90.6468 170.758 90.6468 170.426C90.6468 170.262 90.7808 170.13 90.9405 170.13C91.4767 170.13 95.6946 166.169 95.5691 165.784C95.532 165.669 96.1765 164.874 97.0036 164.015C98.3554 162.61 99.3792 161.266 100.232 159.774C100.397 159.486 100.945 159.147 101.447 159.023C101.949 158.902 102.294 158.7 102.214 158.579C102.134 158.455 102.314 158.145 102.613 157.89C102.913 157.634 103.092 157.268 103.015 157.074C102.873 156.726 105.046 154.467 105.294 154.701C105.365 154.769 105.499 154.596 105.593 154.322C105.685 154.047 106.147 153.606 106.617 153.344C106.754 153.269 106.882 153.183 106.997 153.097C104.986 155.612 97.7109 163.918 96.0111 165.588C95.1755 166.409 94.1146 167.553 93.6526 168.135C91.1687 171.248 78.5634 183.868 76.5585 185.249C74.6364 186.574 73.8578 186.308 70.3614 183.13C66.1692 179.318 55.9966 168.83 52.004 164.204C51.0629 163.113 48.7728 160.577 46.9134 158.568C45.054 156.559 43.0976 154.311 42.5643 153.571C42.3561 153.28 41.9711 152.795 41.4949 152.208C42.4388 153.256 43.32 154.187 43.9475 154.785C44.6918 155.496 45.3021 156.223 45.3021 156.406C45.3021 156.586 46.2318 157.76 47.3697 159.015C48.5076 160.27 50.3071 162.273 51.368 163.469C52.4289 164.662 54.5136 166.765 56.0023 168.135C57.4881 169.508 58.7059 170.766 58.7059 170.93C58.7059 171.094 59.262 171.738 59.9407 172.362C60.6223 172.984 61.3324 173.768 61.5207 174.102C61.7089 174.436 62.0311 174.708 62.2365 174.708C62.439 174.708 62.9152 175.117 63.2945 175.615C63.6738 176.116 65.0085 177.398 66.2633 178.467C67.5181 179.533 68.8642 180.842 69.2578 181.372C69.9166 182.266 71.2598 183.338 73.393 184.671C74.5423 185.389 75.5775 185.349 76.3675 184.555ZM58.5405 57.1445C59.088 56.9479 59.1251 56.4013 58.6175 56.0055C58.4121 55.8439 58.2125 55.1357 58.1726 54.4303C58.1355 53.7248 58.0556 53.1055 58.0015 53.0516C57.9444 53.0005 57.6307 53.092 57.3056 53.2563C56.5299 53.6494 56.5071 55.2004 57.2486 56.3878C57.1488 56.264 57.066 56.1482 56.9976 56.0432C56.5242 55.2838 56.4244 54.6457 56.4244 52.3731C56.4244 49.7235 56.3844 49.5512 55.3435 47.6098C54.7475 46.5031 53.3358 44.2844 52.2036 42.6796C50.2701 39.9385 49.9934 39.2626 50.8091 39.2707C51.2368 39.2761 55.7 45.1595 56.8921 47.2948C57.6906 48.7192 57.8132 49.2442 57.9958 52.0177C58.1098 53.7356 58.3494 55.3188 58.5262 55.5369C58.703 55.7551 59.8038 56.6652 60.9731 57.5591L62.6956 58.8758C62.6072 58.8381 62.5074 58.795 62.3962 58.7412C61.5777 58.3561 60.417 58.4638 60.417 58.9243C60.417 59.0508 60.802 59.417 61.2725 59.7321C61.9713 60.2033 62.2793 60.5076 62.1081 60.6934C62.054 60.4241 61.7374 60.0498 61.2013 59.6971C60.0092 58.9108 58.8969 58.0384 58.0899 57.2764C58.1982 57.2683 58.3351 57.2198 58.5262 57.1498L58.5405 57.1445ZM83.3118 75.9795C83.3717 75.6779 83.3118 75.1151 83.1891 74.5039C83.8194 76.6122 84.4126 79.1029 84.327 79.6711C84.2729 80.0103 84.1017 80.3254 83.9449 80.3739C83.3431 80.5489 82.9809 79.9942 82.5104 78.1767C81.4495 74.0623 80.8905 72.6541 80.1291 72.1424C79.2308 71.5447 71.6819 67.9635 70.6409 67.6242C70.6837 67.5488 70.7721 67.4761 70.9033 67.3846C71.2797 67.1261 71.314 66.9322 71.0716 66.426C70.9062 66.0759 70.8263 65.6397 70.8919 65.4539C70.9176 65.3866 70.9717 65.3301 71.0545 65.2843C70.9974 65.3328 70.9689 65.3947 70.9689 65.4647C70.9689 65.6559 73.3302 66.9241 76.2192 68.2866C79.2108 69.6948 81.7119 71.0492 82.0313 71.4343C82.1311 71.5555 82.2623 71.822 82.4106 72.1936C82.365 72.129 82.3193 72.0805 82.2766 72.0563C80.939 71.2512 80.9162 73.2626 82.2252 76.623C82.4334 77.1562 83.1606 76.7226 83.3118 75.9795ZM65.5332 127.743L65.4847 127.737C63.6453 127.492 61.3695 127.053 60.4255 126.76C59.4816 126.469 58.3922 126.283 58.0015 126.351C57.5851 126.421 56.7666 126.208 56.028 125.839C55.3321 125.489 54.6933 125.271 54.6049 125.354C54.5165 125.438 54.1258 125.306 53.7351 125.066C53.3415 124.824 52.7597 124.625 52.4375 124.625C52.1181 124.625 50.7349 124.059 49.3632 123.37C47.9914 122.681 46.2432 121.824 45.4789 121.466C44.7118 121.111 43.3828 120.311 42.5244 119.692C41.666 119.072 40.5766 118.335 40.106 118.052C39.6354 117.769 38.9424 117.25 38.566 116.894C38.1895 116.539 37.4338 116.07 36.8862 115.855C36.3387 115.639 35.8909 115.332 35.8909 115.176C35.8909 114.869 34.0829 113.162 32.3518 111.835C31.3222 111.046 30.0503 109.409 30.0475 108.873C30.0446 108.725 29.691 108.566 29.2603 108.517C28.8297 108.472 28.459 108.321 28.4419 108.181C28.4219 108.043 28.3734 107.809 28.3335 107.661C28.2936 107.513 28.2451 107.279 28.2251 107.141C28.208 107.001 27.9342 106.813 27.6205 106.719C27.3068 106.624 27.0502 106.412 27.0502 106.247C27.0502 106.08 26.7849 105.679 26.4598 105.351C26.1347 105.025 25.6527 104.39 25.3904 103.943C25.1251 103.496 24.358 102.37 23.6792 101.444C22.9292 100.418 22.5014 99.5616 22.5841 99.2627C22.7353 98.7215 22.1022 97.9676 21.4976 97.9676C21.0555 97.9676 20.4082 96.4301 20.7646 96.2254C20.8901 96.15 20.3882 94.7849 19.8663 93.592C21.2837 96.492 22.0394 97.8679 23.2229 99.7662C26.226 104.586 28.9523 107.879 33.3414 111.996C38.9795 117.287 45.6728 121.501 52.5744 124.108C57.5765 125.998 61.6176 127.145 65.5332 127.743ZM76.1764 93.2312C76.4502 92.97 75.164 89.8896 74.7818 89.8896C74.2913 89.8896 74.0375 88.9876 73.9548 86.9358C73.8949 85.4279 73.9776 85.0806 74.5337 84.5044C74.8645 84.1624 75.1526 83.5377 75.4121 82.5926C75.3437 82.8969 75.2695 83.2065 75.1982 83.5189C74.4396 86.8039 74.3769 87.3936 74.6678 88.4868C75.2495 90.6678 77.5282 95.8377 79.5815 99.6343C80.6767 101.662 81.4923 103.45 81.3896 103.606C80.959 104.263 80.3572 103.773 79.1309 101.764C77.8248 99.6262 74.6792 93.5732 74.6735 93.1908C74.6735 93.0777 74.2143 91.8391 73.6554 90.4389C73.3046 89.5638 73.0764 88.9607 72.9395 88.4679C73.47 90.1401 74.6649 92.9485 75.0186 93.1612C75.4577 93.4224 75.9426 93.452 76.1764 93.2312ZM76.0452 55.7335C76.1108 55.6931 76.1736 55.5881 76.2306 55.4185C76.1507 55.7497 76.0652 55.9839 75.9711 56.1159C75.7372 56.4551 74.451 57.6022 73.1164 58.6658C71.6904 59.7967 71.0031 60.4349 70.9347 60.766C70.7465 60.5345 70.755 60.1844 71.006 59.8586C71.3254 59.444 70.8092 58.822 70.2987 59.0051C70.0563 59.0939 69.5857 58.9593 69.2578 58.7089C68.6446 58.2404 68.4621 57.7422 68.425 56.439C68.4079 55.8789 68.2254 55.6608 67.6579 55.5262C66.9449 55.3592 66.9221 55.2919 67.1018 54.0048C67.2786 52.742 67.2558 52.6693 66.7054 52.8066C66.3745 52.8874 66.1036 52.8147 66.0836 52.6397C66.0637 52.4673 65.9525 53.022 65.8355 53.8675C65.6673 55.1088 65.4534 55.5639 64.7319 56.1966C64.1672 56.6975 63.8849 57.0421 63.862 57.3006C63.3658 56.4632 63.6966 55.475 64.6748 54.9473C65.5874 54.4518 65.8327 53.4878 65.8412 50.3375C65.8441 48.5145 66.1207 47.6879 66.6284 47.9814C66.7852 48.0729 67.0048 49.5135 67.1189 51.1803L67.3242 54.2122L68.3167 54.993C68.7216 55.3108 68.964 55.4966 69.0867 55.7389C69.272 56.1051 69.1779 56.6005 68.9384 57.8661L68.9241 57.9415C68.8728 58.2161 69.0867 58.6012 69.4004 58.8004C69.9194 59.1343 70.1846 58.9916 72.4262 57.1848L74.7163 55.3377C74.6991 55.3781 74.682 55.4131 74.6649 55.4427C74.414 55.887 74.4653 55.9624 75.0214 55.957C75.3807 55.957 75.8399 55.8547 76.0452 55.7335ZM31.7044 12.7186C30.3954 13.6852 28.8753 14.9131 28.1196 15.6643C27.2184 16.5583 26.4798 17.2045 26.4798 17.0995C26.4798 16.9918 26.0948 17.0941 25.6242 17.323C25.1537 17.5519 24.7687 17.8992 24.7687 18.0931C24.7687 18.3651 22.0936 20.9258 20.411 22.264C19.5412 22.956 17.3538 25.4925 16.0191 27.3612C15.1408 28.5863 14.2938 29.6661 14.134 29.7576C13.9544 29.8626 13.9316 29.7899 14.0742 29.5745C14.2168 29.3537 14.1939 29.2864 14.0086 29.3941C13.846 29.491 13.6264 29.9946 13.5238 30.5142C13.3954 31.1524 13.1758 31.4621 12.8479 31.4674C12.4001 31.4728 12.1748 31.8336 11.1282 34.2274C10.9457 34.6394 10.6063 35.046 10.3696 35.1321C10.1329 35.2156 9.93895 35.4445 9.93895 35.6383C9.93895 35.8322 9.81917 36.0315 9.67088 36.0826C9.20887 36.2361 5.66115 43.2504 5.66115 44.0071C5.66115 44.4002 5.41874 45.103 5.125 45.5634C4.83126 46.0265 4.50044 46.8882 4.39207 47.4806C4.2837 48.0729 4.02703 48.8027 3.82455 49.0988C3.47092 49.6185 3.26273 50.3025 2.93192 52.0311C2.84921 52.4593 2.5954 53.0624 2.36725 53.3694C2.12199 53.7033 1.95373 54.5595 1.95373 55.4966C1.95373 56.3609 1.77406 57.3922 1.55731 57.7934C1.29209 58.2807 1.05824 59.1882 0.835796 60.6314C1.83965 53.162 3.45952 47.836 6.34275 42.0603C11.2109 32.3129 13.8973 28.4275 20.2285 21.9759C22.7182 19.4394 28.747 14.3207 29.6168 14.0084C29.8336 13.9303 30.7433 13.3675 31.7044 12.7186ZM57.4938 94.2436C57.9872 93.9501 59.8609 89.5073 59.5386 89.3969C59.1935 89.2784 59.1992 88.5433 59.5415 88.5433C59.8095 88.5433 60.0776 87.9456 60.1546 87.3182C60.1746 87.4716 60.1831 87.5847 60.1803 87.6548C60.1261 89.1869 58.1298 93.6243 55.7599 97.9972C55.7114 98.0052 55.6373 98.0241 55.5317 98.0564C55.2779 98.1318 54.9357 98.0699 54.7731 97.9164C54.5678 97.7225 54.3368 97.8895 54.0288 98.4549C53.6124 99.2169 53.6153 99.2843 54.0744 99.3785C54.4423 99.4566 54.7988 99.427 55.027 99.322C54.6648 99.9682 54.2969 100.609 53.9261 101.228C53.9461 101.102 53.9661 100.967 53.9832 100.862C54.0545 100.396 53.564 99.8255 53.2502 100.009C53.1077 100.092 52.6799 100.738 52.3006 101.449C51.7901 102.397 51.6931 102.817 51.927 103.038C52.1608 103.259 52.3462 103.202 52.6285 102.822C52.8396 102.537 52.9793 102.147 52.9365 101.953C52.8909 101.751 53.0706 101.635 53.3586 101.681C53.4698 101.7 53.5754 101.694 53.6609 101.673C52.3234 103.899 51.0058 105.852 49.9649 107.055C49.4173 107.685 48.847 108.2 48.6958 108.2C48.0484 108.2 48.1568 107.327 48.9268 106.387C49.8137 105.3 52.0211 101.937 52.8624 100.391C54.4309 97.5044 55.854 94.6745 55.854 94.4429C55.854 94.2948 56.1135 93.6943 56.4301 93.1073C56.6069 92.7842 56.8008 92.3803 56.9948 91.9414C56.1763 94.2167 56.3445 94.9356 57.4938 94.2436ZM70.6124 67.7642C70.9375 68.2435 72.1068 69.7029 73.5185 71.3858C75.2182 73.4161 76.6812 75.3494 76.7696 75.6833C76.8152 75.8475 76.8209 76.1114 76.801 76.4076C76.7382 76.2299 76.5985 76.0737 76.3732 75.9418C75.6231 75.5002 75.3323 75.6914 75.1155 76.7657C75.0727 76.9757 75.03 77.1858 74.9758 77.4227C75.03 76.4399 74.6877 75.6052 73.8921 74.6251C73.3046 73.898 72.0669 72.3686 71.1429 71.2243C70.2188 70.0799 69.4146 69.1859 69.3576 69.2398C69.3319 69.2667 69.3348 69.439 69.3661 69.7002V69.6948C69.1751 69.0755 69.1979 69.054 69.6656 69.4148C69.9422 69.6302 70.37 69.8322 70.6124 69.8672C70.8548 69.8995 71.1486 70.0691 71.2598 70.2441C71.4109 70.473 71.5222 70.4757 71.6619 70.263C71.7703 70.0987 71.7075 69.9641 71.5222 69.9641C71.2855 69.9641 71.2712 69.8645 71.4794 69.6275C71.6904 69.3852 71.5849 69.0675 71.1029 68.4993C70.7864 68.125 70.6295 67.9177 70.6124 67.7642ZM78.4465 46.0185C78.4607 46.0185 78.4722 46.0158 78.4836 46.0104C76.9065 48.388 76.8209 49.1742 76.6242 52.1442C76.5842 52.7339 76.5386 53.2617 76.4901 53.7248C76.5186 53.3855 76.5443 53.0005 76.5671 52.5723C76.6498 50.9568 76.8295 49.3035 76.9635 48.8996C77.2886 47.9222 76.915 47.7633 75.9597 48.4715C75.2353 49.01 75.1925 49.15 75.3551 50.4721C75.4606 51.3149 75.4178 51.9584 75.2467 52.0581C75.0898 52.1496 74.9615 52.8308 74.9615 53.5713C74.9615 53.8271 74.9444 54.0964 74.9187 54.3468L75.0214 51.9692C75.2039 47.8252 75.3608 47.5183 80.9048 40.547C81.9229 39.268 82.6616 38.9045 82.6616 39.6773C82.6616 39.9035 81.6491 41.511 80.4114 43.245C79.63 44.3436 79.0226 45.1999 78.5463 45.9161C78.5606 45.8461 78.5492 45.7465 78.5064 45.6415C78.3296 45.2053 77.4655 45.1595 77.1774 45.5688C76.8095 46.0885 76.9407 46.2689 77.5995 46.1531C77.9531 46.0912 78.3324 46.0319 78.4465 46.0185ZM105.779 90.6894C106.078 90.5359 106.535 90.0216 106.788 89.545C107.042 89.0684 107.655 88.2687 108.146 87.7678C108.736 87.1701 108.919 86.8173 108.685 86.7366C108.194 86.5669 108.237 85.9745 108.782 85.4629C108.919 85.331 109.01 85.191 109.061 85.016C109.078 87.0139 108.211 89.1707 106.583 90.5601C105.422 91.551 104.13 91.7718 102.699 91.2279C100.235 90.2935 100.126 85.1802 102.513 82.4337C103.734 81.0228 104.387 80.6727 105.842 80.635C106.754 80.6135 107.105 80.7643 107.772 81.4698C108.274 82.0002 108.625 82.6545 108.833 83.3761C108.608 82.9345 108.209 82.5495 107.45 81.9921C106.249 81.1116 105.907 80.9878 105.117 81.1439C103.392 81.4832 102.037 82.6195 101.92 83.8312C101.689 86.1738 101.384 87.4851 101.145 87.1647C100.951 86.9062 100.922 87.0301 101.048 87.5659C101.144 87.9886 101.293 88.6564 101.375 89.0468C101.681 90.4847 104.27 91.4514 105.779 90.6894ZM69.4004 128.542C69.1323 128.376 67.8204 128.087 66.3004 127.853C67.6151 128.031 68.9241 128.149 70.2559 128.211C78.6547 128.61 85.2225 127.818 92.6431 125.513C95.0957 124.751 101.698 121.687 104.541 119.988C105.602 119.355 106.825 118.655 107.259 118.432C108.077 118.014 112.846 114.18 115.364 111.969L115.298 112.031C113.975 113.256 112.894 114.457 112.891 114.702C112.891 114.961 112.29 115.443 111.443 115.86C109.66 116.738 105.762 119.436 105.762 119.789C105.762 119.931 105.502 120.047 105.183 120.047C104.863 120.047 104.53 120.225 104.444 120.44C104.356 120.658 104.005 120.917 103.668 121.014C103.329 121.113 102.556 121.617 101.949 122.129C101.05 122.893 100.694 123.036 100.007 122.904C99.3507 122.78 99.0256 122.891 98.5122 123.416C98.15 123.785 97.6025 124.086 97.2945 124.086C96.9893 124.086 95.3752 124.571 93.7097 125.163C92.047 125.756 90.5413 126.24 90.3673 126.24C90.1962 126.24 89.5773 126.466 88.9956 126.744C88.4138 127.018 87.1048 127.317 86.0838 127.406C85.0628 127.495 83.0751 127.759 81.6634 127.993C80.0293 128.262 77.5795 128.405 74.9187 128.386C72.2237 128.367 70.6752 128.459 70.5525 128.645C70.313 129.011 70.1076 128.992 69.4004 128.542ZM110.536 103.078C110.322 102.82 110.011 102.499 109.612 102.128C108.907 101.471 108.328 100.746 108.328 100.517C108.328 100.291 108.132 100.033 107.895 99.9466C107.128 99.6693 104.025 96.5351 104.167 96.1823C104.339 95.7623 102.499 94.1979 101.832 94.1952C101.561 94.1952 100.973 94.0148 100.526 93.7913C99.4676 93.2716 99.2594 93.2824 97.919 93.9286C97.303 94.2248 96.5844 94.4671 96.3191 94.4671C95.8058 94.4671 94.7649 95.9212 94.4626 97.0574C94.3628 97.4344 93.9778 97.8733 93.6042 98.0322C93.2334 98.191 92.9283 98.4118 92.9283 98.5222C92.9283 98.6326 92.4777 98.9719 91.9301 99.2789C91.3826 99.5831 90.932 100.011 90.932 100.229C90.932 100.445 90.5327 100.892 90.045 101.22C89.1182 101.842 88.5535 102.849 88.4052 104.118C88.525 102.534 89.2722 101.406 91.086 99.7232C92.2096 98.6838 93.5243 97.2756 94.0091 96.597C97.2232 92.0868 101.755 92.0195 104.926 96.4327C105.645 97.429 106.965 98.8642 107.861 99.6208C109.178 100.728 110.074 101.91 110.536 103.078ZM109.478 97.9299C109.173 97.7279 108.902 97.4748 108.688 97.1759C106.683 94.3675 109.717 89.0818 113.333 89.0818C113.713 89.0818 114.443 89.4346 114.953 89.8681C115.846 90.622 115.886 90.7378 115.883 92.6281C115.883 94.5264 115.834 94.661 114.677 96.1312C114.42 96.457 114.138 96.7909 113.867 97.0871C114.12 96.807 114.383 96.4974 114.62 96.1931C115.469 95.1107 115.7 94.6152 115.509 94.2921C115.35 94.0255 115.364 93.5732 115.544 93.1235C115.795 92.4988 115.712 92.2161 114.996 91.209C114.266 90.1777 114.009 90.0135 113.011 89.9435C112.067 89.8789 111.637 90.0323 110.527 90.8321C109.789 91.3625 109.184 91.9226 109.184 92.0761C109.184 92.2269 108.993 92.5338 108.756 92.7546C108.314 93.1747 108.157 95.2938 108.542 95.6519C108.659 95.7623 108.89 96.352 109.053 96.9659C109.172 97.421 109.301 97.7225 109.478 97.9299ZM94.3941 17.4199C93.0965 16.9945 91.2 16.4641 88.7931 15.8528C85.7416 15.08 80.4571 14.4527 75.9597 14.3261C69.3234 14.143 63.7708 14.7865 57.4083 16.5475C57.9986 16.3779 58.5804 16.2163 59.1336 16.0682C65.3507 14.4096 78.2668 13.2437 78.9798 14.2776C79.0711 14.4096 80.6738 14.528 82.5446 14.5388C84.8347 14.5523 86.1922 14.6815 86.7112 14.9319C87.1361 15.1366 87.7493 15.3035 88.0772 15.3035C88.4024 15.3035 88.9642 15.4866 89.3235 15.7074C89.6828 15.9309 91.0518 16.4156 92.3636 16.7872C93.0195 16.9703 93.7468 17.1991 94.3941 17.4199ZM74.9729 60.6422C77.4968 60.2652 80.574 59.7563 80.9504 59.6271C81.1871 59.5436 82.9182 59.2905 84.8005 59.0616C86.6827 58.8327 88.8644 58.5339 89.6486 58.3965C92.0014 57.9872 96.0938 58.0653 97.5968 58.55C98.7176 58.9108 99.7556 59.6001 100.363 60.311C100.3 60.2841 100.238 60.2706 100.178 60.2706C99.9638 60.2706 98.8972 59.8371 97.8107 59.3093C95.8857 58.3696 95.7744 58.3508 93.3133 58.48C91.9244 58.5554 89.6173 58.6766 88.1856 58.7546C86.7511 58.83 85.0999 59.0805 84.5124 59.312C83.9278 59.5436 82.864 59.7321 82.1511 59.7321C81.4381 59.7321 78.8771 60.0417 76.4587 60.4214C75.9483 60.4995 75.4492 60.5749 74.9729 60.6422ZM101.125 108.348C102.371 108.391 103.543 108.49 104.193 108.649C106.811 109.295 107.704 109.15 108.939 107.89C109.945 106.859 110.487 105.574 110.424 104.363C110.41 104.104 110.51 103.891 110.647 103.891C110.701 103.891 110.747 103.886 110.784 103.873C111.123 105.383 110.715 106.832 109.523 108.019C108.602 108.937 107.162 109.546 105.919 109.546C105.417 109.546 104.053 109.231 102.887 108.843C102.151 108.598 101.618 108.439 101.125 108.348ZM98.3269 86.8335C98.247 86.2626 98.0616 85.6918 97.8021 85.4683C97.2745 85.0187 96.0625 82.6545 95.9313 81.8225C95.8486 81.2759 93.0281 80.8639 92.2153 81.2759C91.9016 81.4374 91.2913 82.1671 90.8607 82.9022C90.393 83.6966 90.1363 84.4936 90.0964 85.2583C90.0878 85.0994 90.085 84.9379 90.085 84.7736C90.085 82.7541 90.9804 81.2624 92.4634 80.7993C93.4131 80.5058 93.7097 80.5273 94.7877 80.9797C96.65 81.7579 98.1671 84.3078 98.3269 86.8335ZM89.3634 97.5691C89.3634 97.2513 89.6828 96.8905 90.1477 96.6778C90.4557 96.5378 90.6439 96.4274 90.758 96.2416C90.6325 96.8743 90.4072 97.2325 89.9338 97.6983C87.5867 100.011 83.4287 97.0951 83.0237 92.8488C82.8983 91.5672 82.9011 91.3464 83.6369 90.579C83.2918 91.0421 83.2519 91.349 83.3888 91.8903C83.5028 92.3453 83.577 93.1504 83.5542 93.6809C83.5228 94.346 83.6911 94.801 84.0846 95.1376C84.3983 95.4069 84.6579 95.8727 84.6579 96.1716C84.6579 96.9686 85.4877 97.6983 86.3975 97.6983C86.8338 97.6983 87.2759 97.8275 87.3757 97.9837C87.4784 98.1399 87.9689 98.2287 88.4623 98.1857C89.141 98.1237 89.3634 97.9703 89.3634 97.5691ZM130.174 90C130.339 89.5584 130.465 89.1869 130.533 88.9149C130.678 88.3414 131.129 86.7204 131.531 85.3121C133.071 79.935 133.522 76.6984 133.516 71.0412C133.516 68.6043 133.436 66.4933 133.276 64.7054C133.67 68.6286 133.684 72.9637 133.276 77.0996C132.606 83.9228 132.549 84.3051 132.107 84.9002C131.89 85.1937 131.711 85.7995 131.711 86.2465C131.708 86.6962 131.52 87.3639 131.292 87.7355C130.87 88.4275 130.718 88.7076 130.174 90ZM144.265 95.5738C145.331 92.55 146.29 89.3457 146.412 88.0398C146.62 85.8076 146.772 84.9486 147.102 84.1274C147.265 83.7235 147.399 82.9857 147.399 82.4903C147.399 81.9921 147.653 81.0309 147.961 80.3496C148.169 79.8919 148.346 79.2537 148.488 78.4755C147.981 82.9615 146.991 87.2939 145.383 92.313C145.046 93.3631 144.661 94.4833 144.265 95.5738ZM40.1088 66.3641C39.6754 66.2536 39.2219 66.1325 38.7428 65.9978C35.5145 65.0931 33.8519 64.2692 32.7824 63.0467C31.3964 61.4581 31.6531 60.4752 33.7577 59.312C34.7103 58.7843 35.8396 58.4638 37.3226 58.3373C35.1067 58.7116 32.1835 60.696 32.1835 61.8835C32.1835 62.5836 33.3984 63.771 34.1142 63.771C34.4051 63.771 34.8956 63.9838 35.2065 64.2422C36.1562 65.0366 37.9101 65.7851 40.1088 66.3641ZM119.317 137.598C119.602 137.213 119.958 136.771 120.289 136.408C120.845 135.794 121.264 135.091 121.222 134.846C121.176 134.601 121.339 134.245 121.578 134.057C121.821 133.869 122.017 133.567 122.017 133.387C122.017 133.206 122.496 132.735 123.084 132.342C123.669 131.949 124.039 131.626 123.905 131.626C123.771 131.626 123.871 131.327 124.125 130.963C124.376 130.597 124.584 130.166 124.584 130.007C124.584 129.848 124.903 129.391 125.297 128.992C125.691 128.591 126.01 128.133 126.01 127.972C126.01 127.81 126.298 127.527 126.652 127.344C126.98 127.175 127.268 126.916 127.755 126.251C125.086 130.228 121.632 134.997 120.472 136.227C120.072 136.653 119.642 137.167 119.317 137.598ZM95.84 90.9048C96.2507 90.7217 96.8524 90.0539 97.1776 89.4238C97.5027 88.791 97.8991 88.2741 98.0588 88.2741C98.1358 88.2741 98.1985 88.2256 98.247 88.1421C97.9989 89.343 97.2973 90.6301 96.5872 91.0529C95.4465 91.7314 94.8219 91.7745 93.607 91.2575C91.9216 90.5386 90.7124 88.8233 90.2675 86.6558C90.3559 86.9331 90.4785 87.2051 90.6325 87.4663C90.9377 87.9833 91.3911 88.8072 91.6392 89.2946C91.8873 89.7819 92.3123 90.2612 92.5804 90.3582C92.8513 90.4551 93.2391 90.692 93.4473 90.8832C93.9207 91.3275 94.8761 91.3329 95.84 90.9048ZM8.11661 103.603C9.40565 106.374 10.6462 108.695 11.131 109.018C11.2508 109.099 11.7413 110.063 12.2204 111.164C13.2785 113.585 14.4249 115.486 15.1008 115.941C15.3746 116.127 15.7511 116.733 15.9364 117.287C16.2672 118.275 16.9317 119.525 18.5288 121.962C15.4716 117.465 15.0267 116.735 14.385 115.432C13.9715 114.595 13.3099 113.464 12.9163 112.914C11.9609 111.584 10.4837 108.792 8.88091 105.281C8.61284 104.699 8.35902 104.139 8.11661 103.603ZM0.413721 78.1982C0.567722 79.4449 0.761649 80.3819 0.984095 80.7885C1.23221 81.2436 1.3805 81.976 1.31206 82.4176C1.15235 83.4381 2.55832 89.3296 3.38536 91.1013C3.73044 91.8418 4.18674 93.2204 4.40063 94.1656C4.71718 95.5523 5.7353 98.2099 6.90172 100.9C4.08978 94.5668 3.18859 91.831 1.93947 86.6585C0.89854 82.3395 0.673241 81.3405 0.413721 78.1982ZM49.0523 4.19908C47.923 4.5572 46.9163 4.97725 46.383 5.34615C45.958 5.63964 45.3306 5.87929 44.9855 5.87929C44.6433 5.87929 43.6965 6.29665 42.878 6.80825C42.0624 7.31985 41.0443 7.79914 40.6136 7.87184C40.183 7.94723 39.4044 8.31612 38.8797 8.69309C38.355 9.07006 37.7361 9.37972 37.5079 9.37972C37.2769 9.37972 36.4214 9.80246 35.6058 10.3221C35.3348 10.4945 35.0725 10.656 34.8415 10.796C35.0382 10.6587 35.255 10.4999 35.4717 10.3302C37.5792 8.69848 44.3325 5.60464 48.4449 4.38487C48.6502 4.32294 48.8555 4.26101 49.0523 4.19908ZM114.848 29.5314C114.18 28.9364 113.536 28.3898 112.937 27.9185C110.704 26.1656 107.193 23.6507 105.599 22.6544C105.864 22.7971 106.155 22.9318 106.332 22.9937C107.464 23.3814 109.087 24.3427 109.558 24.9082C109.846 25.2528 110.325 25.5356 110.621 25.5356C110.986 25.5356 111.109 25.6675 110.998 25.9395C110.881 26.2303 111.083 26.3918 111.716 26.513C112.201 26.6045 112.526 26.7849 112.441 26.9142C112.369 27.0273 113.405 28.1474 114.848 29.5314ZM132.943 62.0558C132.258 58.1515 130.034 50.8356 128.81 48.5576C128.331 47.6691 127.69 46.3389 127.382 45.5984C127.085 44.8876 126.341 43.5789 125.454 42.1411C126.543 43.832 127.55 45.2888 127.792 45.5203C128.066 45.7842 128.291 46.2823 128.291 46.627C128.291 46.9743 128.371 47.3298 128.468 47.4213C128.562 47.5129 129.076 48.765 129.609 50.2055C130.139 51.6461 130.781 53.0409 131.038 53.3074C131.306 53.5875 131.434 54.0291 131.343 54.3549C131.257 54.6645 131.488 55.9112 131.859 57.1229C132.304 58.5877 132.666 60.2544 132.943 62.0558ZM56.9919 52.0554C57.1231 52.1334 57.374 51.568 57.548 50.8006C57.799 49.702 57.7876 49.36 57.5024 49.185C57.0803 48.9292 56.3873 48.9992 56.4101 49.2981C56.4187 49.4085 56.4415 50.3186 56.4643 51.3176C56.4843 52.3165 56.5584 52.8605 56.6269 52.5266C56.6953 52.19 56.8579 51.98 56.9919 52.0554ZM90.7266 93.4574C90.6981 93.4143 90.6696 93.3901 90.6354 93.3901C90.4728 93.3901 89.8169 92.6038 89.1781 91.6399C88.4166 90.4901 87.832 89.8896 87.4784 89.8896C87.1818 89.8896 86.9394 89.7685 86.9394 89.6204C86.9394 89.4723 86.4374 89.3511 85.8243 89.3511C85.3167 89.3511 84.9801 89.4023 84.675 89.5719C85.2568 89.0684 85.5448 89.0495 86.3718 89.1545C88.4537 89.4184 90.1962 91.2494 90.7266 93.4574ZM59.801 72.926C60.2715 72.926 60.4541 72.0374 60.0605 71.6659C59.7468 71.3697 59.4987 71.5178 58.5975 72.5356C57.8988 73.3245 57.5765 73.9142 57.6935 74.1996C57.8418 74.5658 58.0129 74.4958 58.7002 73.7823C59.1565 73.3111 59.6498 72.926 59.801 72.926ZM58.9911 84.1005C58.9911 83.877 59.0994 83.6966 59.2335 83.6966C59.3589 83.6966 59.2306 82.7191 58.9483 81.4832C58.9654 81.5505 58.9796 81.6179 58.9968 81.6879C59.3932 83.3546 59.7411 84.9783 59.9578 86.1199C59.6099 85.4602 58.934 84.7763 58.6631 84.9325C58.5291 85.0106 58.4207 85.8238 58.4207 86.7419C58.4207 86.9816 58.4093 87.2132 58.3893 87.442C58.2581 86.3919 57.6963 83.6858 57.1516 81.4078C57.3912 82.2964 57.7277 83.3573 57.8959 83.7639C58.2239 84.5474 58.9911 84.7844 58.9911 84.1005ZM67.5695 82.5441C67.7064 82.4445 67.8461 82.2668 67.9944 82.0083C67.4868 83.0126 66.982 83.4273 66.3774 83.4273C65.8869 83.4273 64.6948 82.2479 64.6948 81.7606C64.6948 81.6232 64.4153 80.9447 64.0731 80.25C63.574 79.2322 63.4286 78.349 63.3373 75.7533C63.3344 75.7075 63.3344 75.6644 63.3316 75.6187C63.3915 76.6472 63.517 77.4766 63.6966 77.7728C63.9219 78.1443 64.1102 78.8714 64.1159 79.3883C64.1273 80.627 64.9458 82.1241 65.8355 82.5441C66.7168 82.9615 66.9962 82.9615 67.5695 82.5441ZM80.0949 71.1543C80.0949 71.0708 79.7184 70.6453 79.2621 70.2118C78.2526 69.2613 77.3057 69.159 77.3542 70.0072C77.377 70.4407 77.6765 70.675 78.5263 70.9227C79.9181 71.3266 80.0949 71.3535 80.0949 71.1543ZM60.0748 68.2247C60.4598 67.4276 60.283 67.293 59.0624 67.468C58.4121 67.5623 58.1355 67.7454 58.1355 68.0873C58.1355 69.0459 59.627 69.1509 60.0748 68.2247ZM17.0458 55.5612C17.7445 52.987 18.5231 50.7521 19.236 49.4462C19.4556 49.045 19.6353 48.3126 19.6353 47.8144C19.6353 46.9582 20.2713 45.8865 21.4177 44.8122C21.4405 44.7906 21.4633 44.7691 21.4862 44.7421C19.4784 48.7946 18.0554 52.2223 17.0458 55.5612ZM51.2682 59.5974C51.6161 59.6432 51.9641 59.6863 52.2892 59.7267C53.7008 59.8963 56.2789 60.2706 58.0186 60.5587C58.9568 60.7122 59.8666 60.8522 60.5453 60.9465C60.1175 60.9545 59.6014 60.9518 58.9882 60.9384C57.26 60.9007 55.6886 60.7472 55.4947 60.5991C55.1382 60.3271 53.4698 59.9609 51.2682 59.5974ZM55.0384 70.3357C55.3293 70.0853 55.5574 69.7487 55.546 69.5871C55.5317 69.3798 55.4861 69.3771 55.3977 69.5791C55.3264 69.7379 54.9186 69.8268 54.4937 69.7729C53.5269 69.6572 52.8652 70.0449 53.0877 70.5969C53.2959 71.1085 54.2883 70.9738 55.0384 70.3357ZM50.0932 106.18C50.0932 105.682 50.1788 105.143 50.2815 104.987C50.3841 104.828 50.4155 104.699 50.3499 104.699C50.2815 104.699 49.8651 105.192 49.423 105.795C48.7871 106.665 48.6987 106.939 49.001 107.117C49.6569 107.499 50.0932 107.125 50.0932 106.18ZM135.555 113.741C135.806 113.165 135.991 112.613 135.991 112.311C135.991 111.856 136.237 111.304 136.562 111.027C136.876 110.758 137.132 110.383 137.132 110.192C137.132 110.001 137.36 109.689 137.643 109.495C137.905 109.312 138.638 108.078 139.351 106.727C138.321 108.738 136.924 111.315 135.555 113.741ZM55.9738 96.457C56.45 96.2847 56.6097 94.8764 56.182 94.626C55.9167 94.4725 55.2836 95.6007 55.2836 96.2308C55.2836 96.6697 55.3378 96.6886 55.9738 96.457ZM88.5278 106.207C88.7503 106.956 89.218 107.443 90.0507 107.885C90.6297 108.192 91.3426 108.692 91.6335 108.994C91.8902 109.263 92.1526 109.427 92.4976 109.492C92.0756 109.436 91.6478 109.287 91.0746 109.037C89.4918 108.348 88.7959 107.596 88.5278 106.207ZM78.7745 98.1103C78.5805 97.6337 77.3029 97.1167 77.0976 97.4344C77.0063 97.5717 77.0605 97.9164 77.2202 98.1964C77.551 98.778 79.014 98.7 78.7745 98.1103ZM86.7597 67.3146C85.0486 67.6807 81.2812 67.2015 76.7953 66.0382C74.6193 65.4755 73.0051 65.1712 72.0355 65.1308C72.8454 65.1362 74.009 65.3139 75.3151 65.6559C76.4473 65.9521 77.9189 66.1944 78.5834 66.1944C79.2479 66.1944 80.2859 66.4368 80.8905 66.7356C81.9001 67.2311 84.3556 67.4573 86.7597 67.3146ZM18.5487 90.6113C18.4147 90.3797 18.235 90.1266 18.0383 89.9058C17.4964 89.2999 17.2654 88.6941 17.1941 87.6898C17.1399 86.9304 16.9004 85.6918 16.6608 84.9352C16.0391 82.9669 15.5457 80.1719 15.2406 77.1669C15.5714 80.2688 16.1132 83.2038 16.8205 85.4468C17.4023 87.2966 18.0782 89.308 18.5487 90.6113ZM132.238 119.363C132.672 118.642 132.937 117.96 132.909 117.616C132.857 116.964 133.727 115.739 134.246 115.739C134.32 115.739 134.423 115.656 134.54 115.515C133.687 116.996 132.883 118.343 132.238 119.363ZM100.774 60.9276C100.865 61.1215 100.913 61.3127 100.913 61.4877C100.913 62.3143 99.6758 64.0403 99.0826 64.0403C99.0741 64.0403 99.0655 64.0403 99.0541 64.043C99.4562 63.8895 99.7556 63.6849 99.73 63.5745C99.7043 63.4614 99.7671 63.1544 99.8697 62.8959L100.246 61.9535C100.349 61.695 100.414 61.3907 100.389 61.2803C100.363 61.1699 100.469 61.0784 100.62 61.0784C100.705 61.0784 100.759 61.0192 100.774 60.9276ZM72.8083 86.4942C72.8141 86.4215 72.8255 86.3461 72.834 86.2654C72.9424 85.3714 73.1934 84.1543 73.3958 83.5619C73.5727 83.0476 73.8379 82.1106 74.0318 81.3378L73.9748 81.5667C73.7295 82.5441 73.6126 83.7235 73.7124 84.192C73.8208 84.7063 73.7751 85.0429 73.5983 85.0429C73.3531 85.0429 72.9966 85.7618 72.8083 86.4942ZM144.342 46.0238C144.327 46.0077 144.313 45.9996 144.299 45.9996C143.911 45.9996 143.158 44.4837 143.024 43.4308C142.961 42.9246 142.75 42.2218 142.491 41.5621C143.127 42.9219 143.894 44.7583 144.342 46.0238ZM73.8037 67.5111C73.4215 66.8353 73.0679 66.8676 72.8654 67.5973C72.6743 68.2893 73.2048 68.7201 73.7352 68.3054C73.9919 68.1035 74.0118 67.8773 73.8037 67.5111ZM73.8208 72.6864C73.8208 72.1182 73.0821 71.7224 72.8055 72.1424C72.5374 72.5517 72.8911 73.1953 73.3844 73.1953C73.624 73.1953 73.8208 72.9664 73.8208 72.6864ZM84.0362 78.9845C83.6854 78.2574 82.9467 78.0663 82.9467 78.7017C82.9467 79.0625 83.6683 79.6307 84.1531 79.6495C84.2672 79.6549 84.213 79.356 84.0362 78.9845ZM74.1858 57.2952C74.0717 56.8887 73.8835 56.7971 73.4301 56.9263C73.0964 57.0233 72.6943 57.2145 72.5374 57.3545C72.3549 57.516 72.4519 57.5376 72.7969 57.4137C73.1221 57.2952 73.2761 57.3222 73.1762 57.4756C73.0821 57.6157 73.3046 57.7557 73.6696 57.7853C74.2058 57.8257 74.3056 57.7314 74.1858 57.2952ZM57.26 75.4005C57.2714 75.2067 57.1516 75.1232 56.9948 75.2148C56.8379 75.3063 56.7181 75.7075 56.7295 76.106C56.7466 76.7523 56.7752 76.7738 56.9948 76.2918C57.1288 75.9956 57.2486 75.5944 57.26 75.4005ZM79.5245 100.458C79.5245 100.248 79.3734 100.124 79.1851 100.184C78.6689 100.345 78.5948 100.841 79.0882 100.841C79.3277 100.841 79.5245 100.668 79.5245 100.458ZM118.33 109.007C120.206 106.921 122.248 104.352 123.917 101.974C122.234 104.47 120.375 106.813 118.33 109.007ZM148.825 65.9817C148.622 62.9309 148.243 59.9744 147.696 57.7126C148.331 60.3298 148.677 62.7748 148.825 65.9817ZM69.5287 70.6938C69.5316 70.718 69.5373 70.7423 69.543 70.7638C69.774 71.9163 69.8567 73.4026 69.7968 74.8189C69.7996 74.3208 69.7797 73.7661 69.7397 73.1091C69.6856 72.2367 69.6057 71.3535 69.5287 70.6938ZM0.222643 66.259C0.216939 66.3452 0.208385 66.4287 0.202682 66.5148C0.0372735 68.5262 0.00305198 70.9712 0.0743486 73.2734C-0.0568372 70.7261 -0.0140585 69.0271 0.199831 66.531C0.208387 66.4394 0.214087 66.3506 0.222643 66.259ZM38.9111 25.2986C41.6346 23.2764 44.0815 21.8924 47.9486 20.0991C44.4294 21.7335 41.6973 23.271 38.9111 25.2986ZM53.9404 66.6468C52.4032 66.9753 51.194 67.1018 49.2462 67.1853C50.9374 67.0911 52.6029 66.9026 53.9404 66.6468ZM23.2885 41.3737C23.9587 40.3074 24.763 39.1819 25.3077 38.6137C24.4977 39.6504 23.7905 40.609 23.2885 41.3737ZM55.2808 98.8696C55.2751 98.77 55.2694 98.6649 55.258 98.603C55.2466 98.5088 55.4063 98.3149 55.6144 98.1749C55.643 98.156 55.6686 98.1372 55.6914 98.121C55.5546 98.3715 55.4177 98.6219 55.2808 98.8696ZM27.304 134.523C29.2233 137.113 31.2196 139.69 32.1464 140.748C30.9886 139.426 29.3288 137.291 27.304 134.523ZM39.5071 58.2834C40.5252 58.305 41.6745 58.3858 42.9921 58.5231C43.6822 58.5931 44.3981 58.6739 45.0768 58.752C42.9921 58.5177 40.9901 58.3427 39.5071 58.2834ZM19.1847 92.1838C19.0906 92.0222 19.0136 91.9037 18.9537 91.8499C18.8624 91.761 18.7854 91.4918 18.7797 91.2387C18.8967 91.551 18.9908 91.7826 19.0535 91.9091C19.0963 92.0007 19.1419 92.0922 19.1847 92.1838ZM96.2364 108.714C96.0653 108.851 95.86 108.959 95.7801 108.954C95.86 108.959 96.0995 108.822 96.3163 108.652C96.4788 108.528 97.0578 108.437 97.842 108.385C97.0264 108.482 96.3676 108.612 96.2364 108.714ZM110.362 98.3418C111.411 98.5707 112.227 98.4845 112.834 98.0833C112.141 98.5411 111.209 98.603 110.362 98.3418ZM28.0825 35.2479C28.6957 34.4913 29.4486 33.6619 30.3127 32.7788C29.6111 33.5192 28.8468 34.3647 28.0825 35.2479ZM63.5483 70.5673C63.6253 69.9803 63.631 69.5306 63.554 69.4417C63.5797 69.431 63.5968 69.4256 63.6082 69.4256C63.6795 69.4256 63.6539 69.9291 63.5483 70.5673ZM91.6934 66.6172C90.5042 66.8649 89.3862 67.0561 88.7702 67.1072C89.7513 66.9753 90.7409 66.8083 91.6934 66.6172ZM76.2905 78.7421C76.2534 78.8902 76.2249 79.0195 76.2049 79.1191C76.1564 79.3372 75.9825 80.1127 75.7486 81.1305C75.9568 80.1423 76.108 79.4691 76.2905 78.7421ZM97.4057 18.5347C97.6367 18.5347 98.8773 19.0921 100.372 19.8352C98.8487 19.0813 97.6224 18.5347 97.3772 18.5347C97.1918 18.5347 96.5444 18.295 95.9398 18.0042C96.5815 18.295 97.2403 18.5347 97.4057 18.5347ZM141.453 39.6988C141.447 39.6935 141.441 39.6908 141.433 39.6854C141.273 39.5938 141.142 39.3138 141.128 39.0472C141.156 39.233 141.287 39.4942 141.453 39.6988ZM52.2179 18.1631C51.1085 18.5535 50.2187 18.9009 50.0704 19.014C50.2586 18.8713 51.0771 18.5562 52.2179 18.1631ZM145.705 50.2001C146.144 51.2503 146.652 52.8847 146.837 53.8325C146.652 52.8847 146.141 51.2503 145.702 50.2001C145.491 49.6993 145.28 49.1231 145.103 48.5899C145.28 49.1177 145.494 49.6939 145.705 50.2001ZM64.2185 58.0088C64.2242 57.9199 64.1929 57.8284 64.1301 57.7153C64.1358 57.718 64.1415 57.7207 64.1472 57.7261C64.2413 57.7826 64.2642 57.8769 64.2185 58.0088ZM109.332 150.197C110.079 149.362 111.049 148.215 111.714 147.377C112.464 146.432 113.114 145.617 113.684 144.898C113.108 145.622 112.458 146.44 111.716 147.377C111.026 148.247 110.042 149.408 109.332 150.197ZM140.517 104.354C140.734 103.87 140.894 103.466 140.959 103.207C140.959 103.216 140.957 103.226 140.954 103.234C140.917 103.426 140.763 103.816 140.517 104.354ZM140.982 103.105C141.045 102.795 141.227 102.389 141.413 102.136C141.242 102.373 141.071 102.763 140.982 103.105ZM98.1358 64.455C98.1016 64.4792 98.0645 64.5061 98.0274 64.5304C97.9618 64.5788 97.8763 64.6327 97.7707 64.6919L97.7764 64.6865C97.862 64.6192 97.9903 64.5384 98.1358 64.455ZM74.3826 79.9188C74.2856 80.3119 74.1772 80.7562 74.0489 81.2624C74.0717 81.1736 74.0917 81.0874 74.1117 81.0039C74.1944 80.6593 74.2885 80.2769 74.3826 79.9188ZM22.2932 43.1454C22.3874 42.9354 22.5157 42.6931 22.6611 42.4292C22.5356 42.6715 22.413 42.9085 22.2932 43.1454ZM131.52 120.451C131.679 120.211 131.828 119.988 131.956 119.799C131.799 120.045 131.651 120.263 131.52 120.451ZM36.3957 146.072C36.256 145.872 36.179 145.74 36.179 145.695C36.179 145.689 36.179 145.681 36.179 145.676C36.1932 145.746 36.2674 145.88 36.3957 146.072ZM63.4656 58.8624L63.7651 58.5931C63.6482 58.7089 63.5512 58.7977 63.4656 58.8624ZM36.1761 145.646C36.1562 145.485 36.0449 145.358 35.9137 145.358C36.0563 145.358 36.1733 145.487 36.1761 145.646ZM69.4688 77.5762C69.4431 77.6839 69.4175 77.7889 69.3918 77.8885L69.3776 77.9451C69.3861 77.9047 69.3975 77.8643 69.4089 77.8212C69.4289 77.7378 69.4488 77.657 69.4688 77.5762Z" fill="#4CA6A8"/>
</svg>
