<svg width="149" height="186" viewBox="0 0 149 186" fill="none" xmlns="http://www.w3.org/2000/svg">
<ellipse cx="74" cy="73" rx="61" ry="63" fill="white"/>
<path d="M59.4846 35.2877C58.9339 35.469 58.0947 35.9351 57.6226 36.2976C56.4949 37.1522 55.3672 37.1522 53.5051 36.2976C51.3022 35.2877 49.309 35.7538 48.26 37.5665C47.7355 38.4728 48.0239 39.405 50.358 44.8171C51.3546 47.1736 52.1938 49.1416 52.1938 49.2193C52.1938 49.297 50.0433 50.6694 47.4207 52.2749C42.0969 55.5377 40.3398 57.0656 39.1072 59.4479C37.5336 62.5553 37.2451 64.9377 37.7696 70.5052C38.2417 75.3476 38.3204 75.8137 39.0022 76.5905C39.553 77.2379 39.6054 77.4969 39.4481 78.6363C39.3432 79.3613 39.1858 79.9569 39.1072 79.9569C38.1892 79.9569 37.5861 81.8473 36.9829 86.5602L36.6944 88.839L35.1208 90.5481C32.813 93.0599 31.1869 95.4941 31.0296 96.7111C30.846 98.0836 31.5279 99.456 32.7605 100.207C33.6784 100.777 33.9407 100.803 41.2577 100.88L48.7845 100.958V101.812C48.7845 103.03 49.7548 104.298 51.2759 105.049C52.3774 105.619 52.9806 105.723 55.4721 105.8C57.0456 105.852 59.4846 105.774 60.8484 105.619C63.2612 105.36 63.3398 105.36 64.7298 106.033C66.2771 106.784 67.7196 106.914 70.4733 106.551L72.0993 106.318L71.9681 107.587C71.6534 110.125 73.2008 110.72 80.6489 110.953C84.4779 111.057 85.9203 111.005 88.2544 110.617C90.5098 110.254 92.4243 110.177 96.9876 110.203C103.623 110.254 104.121 110.151 104.829 108.493C105.144 107.742 105.17 107.38 104.908 106.551C104.514 105.257 102.862 103.496 100.948 102.304C100.108 101.812 99.4791 101.269 99.5577 101.165C99.6364 101.036 103.177 100.932 107.425 100.932C115.818 100.932 116.368 100.854 117.444 99.5078C118.467 98.2131 118.047 96.0896 116.447 94.5877C115.792 93.9921 115.608 93.9144 115.267 94.1993C114.716 94.6395 114.769 95.4682 115.398 96.4004C115.975 97.2549 116.08 98.472 115.634 98.7569C115.451 98.8604 111.674 98.9381 107.242 98.964L99.1381 98.9899V97.0478C99.1119 94.2511 98.7185 90.3668 98.3251 89.072C97.9055 87.6996 96.2795 85.8092 94.8371 85.0583C93.9979 84.6181 93.2898 84.5145 91.6113 84.4886C90.3262 84.4886 89.4346 84.385 89.4346 84.2296C89.4346 84.0743 89.6181 83.3492 89.8017 82.5723C90.4311 80.3195 90.0115 79.7757 87.3365 79.4649L85.8941 79.3095L86.7857 78.6881C88.2544 77.6523 89.9591 77.6781 94.2339 78.7657C97.04 79.4908 98.3513 79.698 100.135 79.698C102.888 79.698 103.833 79.4649 106.796 78.0925C109.392 76.9013 110.205 76.9013 110.625 78.1184C110.782 78.5327 111.045 80.8892 111.202 83.3751C111.359 85.8351 111.569 88.7872 111.674 89.9007L111.858 91.9723L113.248 92.7233C115.057 93.6814 115.582 93.3706 114.375 91.9982C113.562 91.0919 113.562 91.0401 113.562 88.2952C113.562 84.4368 112.88 78.0925 112.408 77.1343C112.015 76.4093 110.966 75.4253 110.363 75.244C110.179 75.1663 110.337 74.2082 110.782 72.4732C112.225 66.8281 111.412 64.0055 106.717 58.2567C105.406 56.6512 104.383 55.2529 104.436 55.1234C104.488 55.0198 105.668 53.9322 107.058 52.6893C110.861 49.297 111.386 48.1058 109.917 46.1119C108.396 44.0403 105.17 42.616 103.177 43.1598C101.525 43.6001 101.158 43.4965 99.8724 42.3053C98.3776 40.8552 96.9614 40.4149 95.5976 40.9587C95.0207 41.1918 94.5748 41.632 94.3912 42.0722C94.2339 42.4866 94.129 44.7135 94.129 47.2254V51.6535L90.7983 52.2491C83.8222 53.4661 81.1996 54.8645 78.9967 58.4121L78.4721 59.2925L77.6591 58.1273C77.2395 57.5058 76.2954 56.47 75.5873 55.8226C74.3022 54.6832 69.5291 51.9901 66.9328 50.9284C65.6477 50.3846 65.569 50.3328 65.9886 49.8926C66.1985 49.6595 66.3558 49.1675 66.3034 48.8309C66.2509 48.3648 66.0411 48.2094 65.3855 48.1576C64.9134 48.1058 64.52 47.9763 64.52 47.8728C64.52 47.7433 65.0445 46.578 65.6739 45.2315C67.1688 42.0722 68.1916 39.1979 68.1916 38.2397C68.1916 36.5566 65.7526 35.2618 62.1597 35.0287C61.0582 34.9511 60.1141 35.0287 59.4846 35.2877ZM92.162 73.4831C93.2111 74.1823 94.2601 74.7779 94.5224 74.7779C95.1256 74.7779 96.4106 74.1046 97.6432 73.1724C98.1678 72.7581 98.6136 72.4732 98.6136 72.5509C98.6136 72.6804 98.2727 73.4572 97.2236 75.736C97.0401 76.1503 97.0663 76.4352 97.2761 76.6941C97.5646 77.0308 97.4859 77.1085 96.9089 77.2638C96.4631 77.3674 95.3091 77.1343 93.4471 76.5647L90.6672 75.6842L90.064 73.9233C89.3034 71.7481 89.5395 71.6964 92.162 73.4831ZM74.1973 76.3834C74.4596 77.2379 75.43 78.3514 78.8655 81.8214C81.2521 84.2296 83.1141 86.3013 82.983 86.4048C82.8519 86.5343 82.17 86.7674 81.4357 86.9227C78.8918 87.5442 77.4231 88.7095 76.8986 90.5999C76.6626 91.4285 76.6363 91.4544 76.5052 90.8329C76.4265 90.4704 76.243 88.9167 76.0856 87.3889C75.7709 84.1002 75.3513 83.0644 73.3319 80.423C72.5189 79.3613 71.8632 78.2478 71.8632 77.963C71.8632 77.4192 73.2794 75.2958 73.6466 75.2958C73.7777 75.2958 74.0138 75.7878 74.1973 76.3834ZM99.9249 77.1085C99.9249 77.4969 99.2168 77.704 98.6923 77.5228C98.2989 77.3674 98.2989 77.3156 98.6136 77.1085C99.1381 76.7718 99.9249 76.7977 99.9249 77.1085ZM49.4139 80.2677C50.122 81.1999 50.8563 83.0385 50.6728 83.5305C50.5416 83.9448 50.2531 83.9189 48.4698 83.2715C46.634 82.6241 46.0832 81.925 47.0536 81.4847C47.8666 81.1222 48.0764 80.6043 47.7355 79.931C47.4994 79.5167 47.5519 79.439 48.1026 79.439C48.5222 79.439 48.9943 79.7239 49.4139 80.2677ZM87.2316 81.2517C87.861 81.4847 87.9135 81.6142 87.7561 82.4947C87.3889 84.7734 87.1005 85.3431 86.235 85.5244C85.5269 85.6798 85.3433 85.6021 84.7401 84.8511C84.373 84.3591 83.7435 83.6599 83.3502 83.2715C82.9305 82.909 82.6158 82.5464 82.6158 82.4688C82.6158 82.3393 84.8713 81.3553 85.6318 81.174C86.471 80.9668 86.471 80.9668 87.2316 81.2517ZM94.0765 86.8451C95.178 87.3889 96.1221 88.5541 96.4893 89.9266C96.804 91.1178 97.4597 100.103 97.2236 100.311C97.145 100.388 96.6467 100.181 96.0697 99.8444C95.519 99.4819 94.942 99.1194 94.7584 99.0158C94.5748 98.9122 94.2077 99.0676 93.8929 99.3783C93.4733 99.7927 93.4209 100.026 93.6307 100.388C93.7618 100.647 95.519 101.709 97.5383 102.745C101.603 104.79 103.072 106.033 103.072 107.406V108.183H96.9876C92.3456 108.183 90.3 108.286 88.5166 108.623C84.373 109.4 74.3809 109.089 73.8302 108.157C73.5941 107.82 74.3285 106.603 75.325 105.671C75.7971 105.231 77.1871 104.221 78.4197 103.47C80.9898 101.838 81.4094 101.424 81.1734 100.699C80.9374 99.9221 80.2293 99.8186 79.4163 100.414C79.0229 100.699 78.682 100.932 78.6295 100.932C78.4721 100.932 78.6033 92.2054 78.7606 91.3249C79.0491 89.9266 79.8359 89.4087 83.0092 88.4765C84.609 88.0103 86.7857 87.363 87.861 87.0522C90.2476 86.3272 92.7915 86.2495 94.0765 86.8451ZM69.1357 90.7293C72.8598 93.0858 74.276 93.8886 75.4824 94.3288L76.5839 94.769V98.5756V102.356L75.0628 103.185C73.463 104.039 70.1061 104.816 67.9294 104.816C66.8541 104.816 65.0445 104.402 65.0445 104.169C65.0445 104.117 65.3068 103.625 65.6215 103.081C66.0673 102.356 66.2247 101.709 66.1985 100.621C66.1722 98.6533 65.3592 97.488 62.9989 95.9343C61.9761 95.261 61.0844 94.6136 60.9795 94.4582C60.7959 94.1475 62.081 92.4643 63.9693 90.4963C65.569 88.839 66.146 88.8649 69.1357 90.7293ZM59.1699 95.5458C59.4322 95.8307 60.455 96.6075 61.4254 97.229C62.3957 97.8246 63.4185 98.6533 63.707 99.0158C64.4151 99.8962 64.4151 101.32 63.7332 102.408C62.9989 103.599 61.845 103.832 56.7834 103.729C52.9282 103.651 52.4299 103.599 51.7742 103.107C50.935 102.512 50.4892 101.45 50.7252 100.544C50.8039 100.207 51.3808 99.3524 52.0103 98.6274C52.6397 97.9023 53.3216 96.996 53.5051 96.6075C54.2919 95.0797 54.5017 94.9762 56.6522 94.9762C58.3832 94.9762 58.7503 95.0538 59.1699 95.5458Z" fill="#71360C"/>
<path d="M66.4214 0.204391C64.9966 0.349426 61.9145 0.871597 59.5883 1.33575C37.199 5.83218 17.7465 20.7719 7.68591 41.2234C3.29529 50.1583 1.11452 57.8747 0.242208 67.7669C-1.73503 89.9589 8.35468 114.095 31.9361 143.771C40.8627 154.969 55.8955 170.721 67.4972 180.961C73.2545 186.066 73.9523 186.444 75.6679 185.718C78.1976 184.616 97.0394 166.572 106.286 156.39C121.29 139.855 131.67 125.263 139.23 110.12C143.912 100.692 146.645 92.6278 148.302 83.2868C148.855 80.1538 148.971 78.4713 149 73.2786C149 69.6525 148.826 65.9393 148.622 64.4308C147.372 55.8151 144.202 46.126 140.219 38.7576C134.665 28.4884 125.128 18.3062 114.835 11.634C106.141 6.03525 96.0799 2.23503 85.4668 0.610519C81.8031 0.0303345 70.2596 -0.201736 66.4214 0.204391ZM79.2443 12.9394C92.7942 14.0418 106.199 19.8727 115.736 28.8075C121.9 34.5803 127.018 41.8326 130.216 49.288C137.253 65.5912 136.613 83.925 128.501 99.8511C120.563 115.4 105.152 127.294 88.0547 131.123C65.3455 136.171 42.5201 128.309 27.2547 110.12C21.6138 103.39 16.8452 93.237 14.9842 84.012C13.7921 78.1522 13.6758 69.4784 14.6644 63.4155C16.3218 53.2623 20.6833 43.4862 26.993 35.7407C38.8274 21.149 54.936 13.2876 74.1559 12.6784C74.8828 12.6784 77.1799 12.7944 79.2443 12.9394Z" fill="#71360C"/>
</svg>
