<svg width="149" height="186" viewBox="0 0 149 186" fill="none" xmlns="http://www.w3.org/2000/svg">
<ellipse cx="75" cy="72" rx="61" ry="63" fill="white"/>
<path d="M45.5479 35.3839C44.4978 35.8968 44.0094 36.6538 43.7408 38.0458C43.5943 38.754 43.4477 50.9399 43.3745 67.5948C43.2768 83.1752 43.1547 99.8057 43.0814 104.519C42.9105 113.726 42.9105 113.872 44.0827 113.872C44.3757 113.872 44.7665 113.726 44.913 113.555C45.2304 113.139 45.377 103.273 45.6456 65.5923C45.8165 39.5354 45.841 38.1435 46.2805 37.6795C46.5492 37.3864 47.0376 37.191 47.526 37.191C48.9668 37.191 49.0889 37.7527 49.0889 44.7126C49.0889 49.0839 49.1622 50.8422 49.382 51.062C49.8215 51.5016 50.7251 51.4039 51.1158 50.8666C51.3112 50.598 51.531 50.4515 51.6531 50.5736C51.7752 50.6713 51.7752 50.6224 51.6775 50.4515C51.4822 50.0852 54.0219 46.7151 55.7069 45.1034C59.4921 41.5379 64.2298 39.0714 69.5779 37.8992C71.7269 37.4108 72.8503 37.362 83.107 37.2643C89.261 37.1911 94.5603 37.2155 94.8777 37.2887C96.2941 37.655 97.9059 39.8285 97.9303 41.4158V42.0752L87.3806 42.0264L76.8308 41.9531L76.6599 41.1228C76.3424 39.6087 76.0738 39.5354 73.0945 39.8529C71.4827 40.0483 69.4802 40.4878 67.9173 40.9763C66.5009 41.4403 65.2554 41.7333 65.1089 41.66C64.9624 41.5868 64.9135 41.5868 65.0112 41.7089C65.1089 41.8066 64.5716 42.2217 63.7902 42.6369C61.3725 43.8823 59.2235 45.4208 57.3675 47.228C56.3663 48.2048 55.4627 48.9618 55.3162 48.9374C55.1941 48.8886 55.1453 48.9374 55.2429 49.0351C55.3162 49.1084 54.7789 50.0363 54.0463 51.062C51.6775 54.3832 50.1879 58.0463 49.4308 62.4909C48.9912 65.0551 49.0889 65.861 49.846 66.2761C50.7739 66.7645 51.2135 65.9586 51.6287 63.1503C52.8741 54.8472 57.7827 48.0338 65.1577 44.4196C67.5266 43.223 70.628 42.3194 72.8259 42.1485C74.7307 42.0019 74.7307 42.0019 74.7307 42.588C74.7307 42.9299 74.9016 43.4427 75.1214 43.7358C75.4389 44.1754 75.7319 44.2731 76.8797 44.2731H78.2717L78.931 45.7139C79.6881 47.3256 81.1289 48.8886 82.4965 49.5479C83.2779 49.9387 84.1326 50.0119 88.7482 50.0852C94.0719 50.1584 94.0963 50.1584 95.3906 49.5235C96.9291 48.7665 98.4676 47.1059 99.0781 45.5429C99.2979 44.908 99.713 44.1998 99.9817 43.9312C100.372 43.5404 100.421 43.2474 100.275 41.7821C100.201 40.8297 99.884 39.5354 99.5909 38.8761C98.956 37.362 97.1 35.6525 95.6836 35.2618C94.8778 35.042 91.581 34.9932 82.7895 35.0665C69.4558 35.1641 69.1139 35.213 64.2053 37.1666C59.9073 38.9005 56.6838 41.0495 53.3137 44.444L51.2868 46.4709V42.2706C51.2868 37.5085 50.9937 36.434 49.4797 35.4816C48.5028 34.8955 46.598 34.8222 45.5479 35.3839ZM97.0756 44.8103C96.7826 45.7871 95.6104 47.057 94.5114 47.6187C93.5102 48.1315 93.1195 48.1804 89.09 48.1804C84.328 48.1804 83.5465 48.0094 82.2278 46.764C81.8371 46.3977 81.2998 45.6895 81.0556 45.1766L80.5916 44.2731H88.8947H97.2221L97.0756 44.8103Z" fill="#8EC438"/>
<path d="M65.866 55.189C65.7683 55.2622 65.695 55.6041 65.695 55.946C65.695 56.3856 66.3544 57.2159 68.0394 58.9254L70.3594 61.3186L69.4802 62.6861C67.9661 65.0794 67.3556 67.0086 67.2335 69.9147C67.0626 73.7976 67.6731 75.971 69.8709 79.219L70.7989 80.5865L68.3569 83.0042C67.0137 84.3229 65.866 85.666 65.7927 85.9835C65.6217 86.6184 66.0613 87.2534 66.6474 87.2534C66.8672 87.2534 68.1371 86.1544 69.4802 84.8113C70.8234 83.4682 71.9956 82.3692 72.1177 82.3692C72.2153 82.3692 72.6305 83.053 73.0212 83.8833C73.7538 85.4218 73.7538 85.4218 73.7538 90.0129C73.7538 95.2878 73.9004 95.9227 75.3412 96.1914C76.0005 96.3135 76.2203 96.5088 76.4401 97.1438C76.8797 98.4869 78.5891 99.8545 80.2498 100.196C83.3023 100.831 85.6467 99.7812 86.9654 97.217C87.2585 96.6309 87.6248 96.289 87.8934 96.289C88.1376 96.289 88.6016 96.0693 88.9191 95.825C89.5052 95.3611 89.5052 95.2634 89.6273 90.135C89.7494 85.0555 89.7738 84.909 90.4332 83.6391C90.7995 82.9553 91.1658 82.3692 91.2635 82.3692C91.3612 82.3692 92.5578 83.4682 93.9254 84.8357C95.879 86.7405 96.5628 87.2778 97.0024 87.2045C97.4175 87.1557 97.5885 86.9359 97.6373 86.4475C97.7106 85.8614 97.3442 85.373 95.1464 83.1507L92.5822 80.5377L93.7788 78.7794C95.586 76.0687 96.05 74.6767 96.1721 71.3799C96.3186 67.4726 95.7081 65.2992 93.73 62.3931L92.9974 61.3186L95.3662 58.9254C97.3687 56.874 97.7106 56.41 97.6373 55.8239C97.5885 55.3355 97.4175 55.1157 97.0024 55.0669C96.5628 54.9936 95.879 55.5309 93.9986 57.3624C92.2159 59.1207 91.4833 59.7068 91.2391 59.5359C87.7958 56.9229 85.549 56.117 81.6906 56.117C77.8809 56.117 75.561 56.9473 72.1177 59.5359C71.8979 59.7068 71.1897 59.1696 69.407 57.3868C67.2091 55.189 66.3788 54.6761 65.866 55.189ZM84.0838 58.3148C85.8177 58.6811 88.797 60.0975 89.5296 60.9034C89.9448 61.3674 89.8715 61.4895 85.8421 65.5189C83.571 67.7901 81.6417 69.5972 81.5685 69.5484C81.4708 69.4751 79.6148 67.5703 77.4414 65.2992L73.4852 61.1476L74.6574 60.2929C76.0005 59.2917 77.8809 58.5102 79.6881 58.2171C81.5685 57.8997 82.2522 57.9241 84.0838 58.3148ZM92.2892 64.0537C94.0475 66.9109 94.6091 70.9892 93.6811 74.1883C93.266 75.6291 91.8984 78.1445 91.2635 78.6817C90.9949 78.8771 90.0913 78.0956 87.0631 75.0186L83.1802 71.1113L87.3318 66.9598C89.6029 64.6886 91.4833 62.8327 91.5077 62.8327C91.5077 62.8327 91.874 63.3699 92.2892 64.0537ZM76.1959 67.1063L80.2253 71.1357L76.318 75.043C71.8734 79.4876 72.2153 79.3899 70.7501 76.5571C68.8209 72.7963 68.7232 68.7425 70.457 65.2503C71.1164 63.9316 71.7513 63.0769 72.02 63.0769C72.0932 63.0769 73.9736 64.884 76.1959 67.1063ZM85.7688 76.7281L89.7006 80.5865L88.8214 82.3448C88.333 83.2972 87.8202 84.6892 87.6736 85.4218L87.405 86.765H81.6906H76.0005L75.854 85.666C75.7563 85.0555 75.2435 83.6635 74.6818 82.589L73.705 80.6109L77.6856 76.7281C79.8834 74.6034 81.7394 72.8696 81.7883 72.8696C81.8127 72.8452 83.6198 74.579 85.7688 76.7281Z" fill="#8EC438"/>
<path d="M60.469 58.7543C59.541 59.4381 60.0538 60.1463 62.4715 61.5139C64.8403 62.9058 65.4508 63.0524 65.9392 62.4663C66.452 61.8557 65.988 61.2452 63.9123 59.9998C61.4702 58.4857 61.0306 58.3392 60.469 58.7543Z" fill="#8EC438"/>
<path d="M99.5177 59.9753C97.3198 61.2452 96.8803 61.7825 97.4419 62.4663C97.9304 63.0523 98.5653 62.9058 100.836 61.6115C103.108 60.3417 103.474 59.9265 103.059 59.145C102.644 58.4124 101.887 58.5834 99.5177 59.9753Z" fill="#8EC438"/>
<path d="M49.675 68.3761C49.3087 68.7425 49.2843 69.2797 49.4064 73.3091C49.4797 75.8245 49.6995 85.5439 49.9192 94.9459C50.1635 104.348 50.3832 112.407 50.4565 112.822C50.603 113.799 51.3112 114.263 52.0683 113.848L52.5811 113.579L52.4346 106.448C52.0683 90.3548 51.5066 69.7681 51.3845 69.2553C51.2868 68.6936 50.6519 67.961 50.31 67.961C50.1879 67.961 49.9192 68.1564 49.675 68.3761Z" fill="#8EC438"/>
<path d="M57.7095 70.1588C57.0501 70.4274 56.9768 71.1845 57.5629 71.7462C57.8804 72.088 58.3932 72.1369 60.7376 72.0636C62.8867 72.0148 63.5704 71.9171 63.7414 71.6241C64.0833 71.0868 64.0344 70.7449 63.5949 70.3053C63.3018 69.9879 62.6913 69.9146 60.7376 69.939C59.3701 69.939 58.0025 70.0367 57.7095 70.1588Z" fill="#8EC438"/>
<path d="M99.6398 70.2565C99.1758 70.8426 99.4444 71.6974 100.128 71.8927C101.105 72.1613 104.988 72.1369 105.525 71.8683C105.794 71.7218 105.989 71.3555 105.989 71.0136C105.989 70.1344 105.305 69.9146 102.497 69.9146C100.568 69.9146 99.884 70.0123 99.6398 70.2565Z" fill="#8EC438"/>
<path d="M62.8866 80.1957C61.8121 80.7574 60.7376 81.3923 60.4934 81.5877C59.9562 82.0517 60.0294 82.8332 60.6399 83.1995C60.9818 83.4193 61.4702 83.2483 63.2041 82.3692C66.1102 80.8551 66.5742 80.3667 65.7927 79.5852C65.2555 79.048 65.0845 79.0724 62.8866 80.1957Z" fill="#8EC438"/>
<path d="M97.4419 79.5609C96.9047 80.2203 97.4419 80.8796 99.6154 82.1251C101.911 83.4194 102.35 83.5415 102.814 83.0042C103.449 82.2228 102.985 81.6123 100.861 80.3912C98.6874 79.1458 97.9303 78.9748 97.4419 79.5609Z" fill="#8EC438"/>
<path d="M66.4214 0.204391C64.9966 0.349426 61.9145 0.871597 59.5883 1.33575C37.199 5.83218 17.7465 20.7719 7.68591 41.2234C3.29529 50.1583 1.11452 57.8747 0.242208 67.7669C-1.73503 89.9589 8.35468 114.095 31.9361 143.771C40.8627 154.969 55.8955 170.721 67.4972 180.961C73.2545 186.066 73.9523 186.444 75.6679 185.718C78.1976 184.616 97.0394 166.572 106.286 156.39C121.29 139.855 131.67 125.263 139.23 110.12C143.912 100.692 146.645 92.6278 148.302 83.2868C148.855 80.1538 148.971 78.4713 149 73.2786C149 69.6525 148.826 65.9393 148.622 64.4308C147.372 55.8151 144.202 46.126 140.219 38.7576C134.665 28.4884 125.128 18.3062 114.835 11.634C106.141 6.03525 96.0799 2.23503 85.4668 0.610519C81.8031 0.0303345 70.2596 -0.201736 66.4214 0.204391ZM79.2443 12.9394C92.7942 14.0418 106.199 19.8727 115.736 28.8075C121.9 34.5803 127.018 41.8326 130.216 49.288C137.253 65.5912 136.613 83.925 128.501 99.8511C120.563 115.4 105.152 127.294 88.0547 131.123C65.3455 136.171 42.5201 128.309 27.2547 110.12C21.6138 103.39 16.8452 93.237 14.9842 84.012C13.7921 78.1522 13.6758 69.4784 14.6644 63.4155C16.3218 53.2623 20.6833 43.4862 26.993 35.7407C38.8274 21.149 54.936 13.2876 74.1559 12.6784C74.8828 12.6784 77.1799 12.7944 79.2443 12.9394Z" fill="#8EC438"/>
</svg>
