<svg width="149" height="186" viewBox="0 0 149 186" fill="none" xmlns="http://www.w3.org/2000/svg">
<ellipse cx="74" cy="75" rx="61" ry="63" fill="white"/>
<path d="M66.4214 0.204391C64.9966 0.349426 61.9145 0.871597 59.5883 1.33575C37.199 5.83218 17.7465 20.7719 7.68591 41.2234C3.29529 50.1583 1.11452 57.8747 0.242208 67.7669C-1.73503 89.9589 8.35468 114.095 31.9361 143.771C40.8627 154.969 55.8955 170.721 67.4972 180.961C73.2545 186.066 73.9523 186.444 75.6679 185.718C78.1976 184.616 97.0394 166.572 106.286 156.39C121.29 139.855 131.67 125.263 139.23 110.12C143.912 100.692 146.645 92.6278 148.302 83.2868C148.855 80.1538 148.971 78.4713 149 73.2786C149 69.6525 148.826 65.9393 148.622 64.4308C147.372 55.8151 144.202 46.126 140.219 38.7576C134.665 28.4884 125.128 18.3062 114.835 11.634C106.141 6.03525 96.0799 2.23503 85.4668 0.610519C81.8031 0.0303345 70.2596 -0.201736 66.4214 0.204391ZM79.2443 12.9394C92.7942 14.0418 106.199 19.8727 115.736 28.8075C121.9 34.5803 127.018 41.8326 130.216 49.288C137.253 65.5912 136.613 83.925 128.501 99.8511C120.563 115.4 105.152 127.294 88.0547 131.123C65.3455 136.171 42.5201 128.309 27.2547 110.12C21.6138 103.39 16.8452 93.237 14.9842 84.012C13.7921 78.1522 13.6758 69.4784 14.6644 63.4155C16.3218 53.2623 20.6833 43.4862 26.993 35.7407C38.8274 21.149 54.936 13.2876 74.1559 12.6784C74.8828 12.6784 77.1799 12.7944 79.2443 12.9394Z" fill="#BE3636"/>
<path d="M69.8234 42.8616C69.1837 43.4712 69.4744 44.2194 70.9283 45.6881L72.3531 47.1291L68.9511 49.0411C64.2987 51.6737 64.2987 51.6182 68.8929 55.3315C70.8411 56.8833 72.324 58.2135 72.1786 58.2412C55.7501 63.2568 51.534 64.4761 49.4695 64.8364C48.0738 65.0581 46.8526 65.252 46.7363 65.252C46.5909 65.252 46.5036 64.0882 46.5036 62.6749C46.5036 60.5412 46.4164 59.9869 45.9803 59.6267C45.2243 58.9616 32.7212 58.4351 31.7616 59.0448C31.0638 59.4604 30.9184 60.1255 31.3836 60.8183C31.6744 61.2894 34.9892 61.5665 40.4847 61.6219L43.5959 61.6496V63.9773C43.5959 65.2243 43.7413 66.693 43.9158 67.1918L44.2647 68.1063L46.1838 67.94C47.2306 67.8569 48.539 67.6906 49.0624 67.5798L49.9929 67.3858V68.7436C49.9929 70.1014 49.9929 70.1014 47.6376 72.0412C46.3292 73.1219 43.247 75.6713 40.7464 77.7497L36.1813 81.5184L34.0587 80.5762C32.8956 80.0774 31.6744 79.6617 31.3545 79.6617C30.773 79.6617 25.6555 82.5991 24.4924 83.6244C23.6201 84.3726 23.6491 85.0931 24.5505 85.6473C25.2193 86.0629 25.3356 86.0629 27.0802 85.0931C28.0979 84.5666 29.4936 83.7352 30.1915 83.2919L31.4708 82.4605L33.6807 83.5135C36.6175 84.9268 41.9386 86.1461 48.8589 87.0051C58.1635 88.169 57.2912 87.975 57.7274 89.1111L58.0763 90.1365L54.18 91.0232C52.0283 91.522 50.0801 92.1039 49.8475 92.3256C49.3241 92.7967 49.3241 92.8521 49.8184 96.5377C50.051 98.5329 50.0801 99.4196 49.8766 99.5028C49.7021 99.5305 47.027 100.029 43.9449 100.556C40.8336 101.082 38.1295 101.664 37.8969 101.858C37.3444 102.302 37.3735 103.355 37.9841 103.909C38.333 104.241 38.711 104.324 39.3507 104.186C39.845 104.103 42.9853 103.521 46.3583 102.911C49.7021 102.302 52.6389 101.636 52.8424 101.443C53.1623 101.138 53.1623 100.528 52.8133 97.7847C52.5807 95.9558 52.4644 94.4039 52.5807 94.3208C52.668 94.21 54.2963 93.7943 56.1572 93.3509L59.5592 92.575L62.6704 95.3461C65.9852 98.2558 68.5731 100.445 68.7766 100.445C69.0383 100.445 79.7095 96.8148 81.6868 96.0389L83.8676 95.1798L87.7057 97.6184C89.8283 98.9485 91.573 100.085 91.5439 100.168C91.5439 100.251 90.1773 101.304 88.5199 102.523C84.3619 105.544 84.2746 106.209 87.6476 107.65C88.6071 108.065 91.9219 109.562 95.0331 110.947C101.139 113.718 102.128 113.94 102.273 112.555C102.331 112.111 102.186 111.557 101.924 111.308C101.692 111.031 98.8131 109.645 95.5274 108.204C92.2417 106.763 89.5666 105.488 89.5376 105.377C89.5376 105.267 90.846 104.214 92.4453 103.022C95.353 100.861 96.0508 99.9738 95.382 99.2256C95.1785 99.004 93.3466 97.8124 91.2531 96.5654C89.1596 95.2907 87.5603 94.1823 87.7057 94.0714C87.822 93.9606 90.4099 93.3509 93.463 92.6859C96.487 92.0485 99.162 91.4389 99.3947 91.328C99.6273 91.1895 100.529 89.7485 101.43 88.0858L103.058 85.0654L108.583 83.0979C111.636 82.0171 115.009 80.7147 116.085 80.2436L118.062 79.3846L120.156 81.075C122.889 83.2641 123.383 83.5135 124.139 82.8485C124.459 82.5714 124.721 82.128 124.721 81.8509C124.721 81.5738 123.616 80.4099 122.191 79.2183C118.353 76.0316 118.673 76.1424 116.55 77.0569L114.747 77.8328L112.247 76.5858C94.1026 67.6352 94.7714 67.9954 94.7714 67.081C94.7714 65.1135 94.8296 65.0858 98.3479 64.5593C103.291 63.8665 103.495 63.8388 103.931 63.3954C104.251 63.0906 104.367 62.287 104.367 60.3749V57.7701H110.211C113.671 57.7701 116.259 57.6592 116.608 57.493C116.957 57.299 117.161 56.911 117.161 56.3845C117.161 55.858 116.957 55.4701 116.608 55.2761C116.259 55.1098 113.352 54.999 109.194 54.999C100.994 54.999 101.459 54.7773 101.459 58.7677C101.459 61.7327 101.983 61.3448 96.8068 62.093L93.463 62.5364L87.6476 61.5388C84.4491 61.0123 81.2797 60.458 80.6109 60.3749C79.5932 60.2364 78.6337 59.5713 74.4175 56.1906C71.6843 54.0014 69.5326 52.0893 69.6198 51.9785C69.678 51.8399 70.9865 51.0363 72.4985 50.1496C75.6678 48.3484 76.2785 47.7664 76.0458 47.0182C75.9295 46.7411 74.8828 45.605 73.7197 44.4965C71.568 42.5291 70.6085 42.1134 69.8234 42.8616Z" fill="#BE3636"/>
</svg>
