<svg width="149" height="186" viewBox="0 0 149 186" fill="none" xmlns="http://www.w3.org/2000/svg">
<ellipse cx="74" cy="71" rx="62" ry="59" fill="white"/>
<path d="M70.7599 0.0929871C56.8124 0.823685 43.2605 5.32956 32.04 12.9205C25.3577 17.4264 18.5505 24.0432 13.8666 30.5584C6.66388 40.5647 2.31309 51.3626 0.606083 63.5001C0.0440196 67.4376 -0.184969 74.9272 0.168923 78.3979C1.62612 93.3566 8.47497 109.533 21.3192 128.429C31.811 143.835 44.4887 158.509 61.8294 175.213C69.8232 182.926 72.8625 185.605 73.9033 185.869C75.1524 186.194 76.0891 185.93 77.2965 184.895C82.9172 180.105 94.0336 169.165 101.361 161.209C126.217 134.255 141.06 110.731 146.763 89.2567C148.47 82.8226 149.157 77.0786 148.97 70.8881C148.429 54.1027 142.184 38.3118 130.88 25.2204C128.819 22.8254 123.427 17.7106 120.929 15.7418C113.289 9.79485 105.087 5.634 95.6157 2.91425C88.0382 0.722198 78.6913 -0.333237 70.7599 0.0929871ZM81.8971 15.1735C92.1392 16.4522 101.111 19.8418 109.168 25.4843C120.367 33.2985 128.174 44.2182 132.087 57.4719C133.753 63.0738 134.356 68.0871 134.19 74.7242C134.065 80.0216 133.669 82.8835 132.462 87.5111C127.424 106.671 112.561 122.056 93.1384 128.226C83.5001 131.271 72.8209 131.88 62.6829 129.952C45.4255 126.664 30.4579 115.906 21.6731 100.501C12.5343 84.4666 12.2429 64.1293 20.9028 47.2424C27.9182 33.5421 39.8881 23.1095 54.3144 18.1368C58.4154 16.716 64.2442 15.4171 68.4076 14.9908C71.6967 14.6458 78.4415 14.7473 81.8971 15.1735Z" fill="black"/>
<path d="M35.1626 51.0988C34.7879 51.4641 34.7462 51.7686 34.7462 55.0363V58.5883L35.2875 58.9942C35.7663 59.3595 36.141 59.4204 37.6815 59.4204H39.5342V60.5368V61.6531H37.6815C36.141 61.6531 35.7663 61.714 35.2875 62.0793L34.7462 62.4852V66.0372C34.7462 70.4822 34.6838 70.3807 37.5566 70.3807H39.5342V72.3901V74.3791L41.262 74.5009C42.1988 74.5821 43.2813 74.643 43.656 74.643H44.3221V72.5118V70.3807H74.507H104.692V73.0193C104.692 74.988 104.754 75.6578 104.963 75.6578C105.087 75.6578 106.17 75.5564 107.357 75.4143L109.48 75.1707V72.7757V70.3807H111.458C114.33 70.3807 114.268 70.4822 114.268 66.0575C114.268 64.1496 114.185 62.4649 114.101 62.3432C113.768 61.856 112.956 61.6531 111.27 61.6531H109.48V60.5368V59.4204H111.333C112.873 59.4204 113.248 59.3595 113.727 58.9942L114.268 58.5883V55.0769C114.268 52.2557 114.205 51.5047 113.935 51.1394L113.622 50.6928H74.5903C35.8495 50.6928 35.5789 50.6928 35.1626 51.0988ZM42.6568 54.1433C43.1564 54.6304 43.198 55.3002 42.74 55.9294C42.0947 56.8427 40.3669 56.2135 40.3669 55.0566C40.3669 54.4071 41.0538 53.7373 41.72 53.7373C42.0114 53.7373 42.4278 53.92 42.6568 54.1433ZM108.231 54.1433C108.46 54.3665 108.647 54.7725 108.647 55.0566C108.647 55.3408 108.46 55.7467 108.231 55.97C108.002 56.1932 107.586 56.3759 107.294 56.3759C107.003 56.3759 106.586 56.1932 106.357 55.97C106.128 55.7467 105.941 55.3408 105.941 55.0566C105.941 54.7725 106.128 54.3665 106.357 54.1433C106.586 53.92 107.003 53.7373 107.294 53.7373C107.586 53.7373 108.002 53.92 108.231 54.1433ZM104.692 60.5368V61.6531H74.507H44.3221V60.5368V59.4204H74.507H104.692V60.5368ZM42.6568 65.1035C43.5311 65.956 42.9482 67.3362 41.6992 67.3362C40.4501 67.3362 39.9713 66.0778 40.8873 65.205C41.491 64.5961 42.0947 64.5555 42.6568 65.1035ZM108.106 65.1238C108.73 65.6109 108.814 66.2807 108.272 66.9302C107.523 67.8436 105.941 67.2753 105.941 66.0778C105.941 65.4283 106.586 64.6976 107.169 64.6976C107.377 64.6976 107.794 64.8803 108.106 65.1238Z" fill="black"/>
<path d="M32.1025 75.394C31.8527 75.597 31.3531 76.5306 30.9784 77.4643C30.4371 78.885 30.3747 79.1895 30.6036 79.4128C30.8326 79.6157 33.5597 79.7984 41.72 80.1231C47.6737 80.3464 57.6035 80.7726 63.7862 81.0365C69.9689 81.3207 75.3606 81.5439 75.7561 81.5236C76.4222 81.5236 76.339 81.4627 74.736 80.7117L72.9666 79.8999L74.2573 78.6415C75.4438 77.4643 75.8185 76.8757 75.3606 76.8757C75.2565 76.8757 72.2796 76.7336 68.7407 76.5712C65.2226 76.4088 56.6251 76.0435 49.6305 75.7593C42.6568 75.4955 35.9537 75.2113 34.7463 75.1301C32.8103 75.0287 32.498 75.049 32.1025 75.394Z" fill="black"/>
<path d="M109.168 76.0637C105.858 76.49 97.7182 77.5048 91.0983 78.337C84.4993 79.1489 79.1076 79.8592 79.1285 79.9404C79.1701 80.0216 79.7321 80.5087 80.3983 81.0162C81.0436 81.5439 81.5849 82.031 81.5849 82.1122C81.5641 82.1934 80.9187 82.7414 80.1069 83.3503C79.3158 83.9592 78.6913 84.4869 78.7329 84.5275C78.7746 84.5681 81.4392 84.2636 84.6242 83.878C87.8092 83.4721 93.7213 82.7414 97.7182 82.2543C115.912 80.0216 118.327 79.6969 118.619 79.4127C118.868 79.1691 118.827 78.9053 118.244 77.5454C117.349 75.4954 117.12 75.2519 116.058 75.2722C115.579 75.2925 112.498 75.6375 109.168 76.0637Z" fill="black"/>
<path d="M28.855 81.5641C28.6676 81.8483 28.5011 82.7617 28.4386 83.8577C28.2929 86.4151 28.168 86.3339 32.8519 86.5166C34.9128 86.5977 36.6198 86.7398 36.6198 86.821C36.6198 87.4096 35.1418 99.4659 35.0585 99.608C34.996 99.7095 34.663 99.75 34.3299 99.6689C32.9351 99.405 32.04 100.034 32.04 101.252V102.044L37.3068 102.003L42.5527 101.942L42.5319 101.151C42.4902 100.197 42.1363 99.8718 40.8457 99.6892C39.9297 99.5674 39.9089 99.5471 40.0338 98.9179C40.0963 98.5728 40.4501 95.7313 40.804 92.6056C41.1579 89.4799 41.4702 86.9022 41.491 86.8819C41.491 86.8616 44.5511 86.9834 48.2774 87.1458C62.6204 87.775 77.5255 88.3839 77.588 88.3433C77.6088 88.323 76.8386 87.8156 75.8602 87.2066C74.8818 86.5977 74.0907 86.0497 74.0907 85.9888C74.0907 85.9077 74.7777 85.2785 75.6312 84.5681L77.1925 83.2691L76.0059 83.127C75.3605 83.0661 71.2179 82.8428 66.8047 82.6602C62.3914 82.4978 53.6482 82.1122 47.3406 81.8483C41.0538 81.5844 34.3715 81.3003 32.5396 81.2191L29.1672 81.077L28.855 81.5641Z" fill="black"/>
<path d="M117.807 81.2597C117.64 81.3003 112.998 81.8889 107.502 82.5587C102.007 83.2488 94.6164 84.1621 91.0567 84.6087C87.5178 85.0552 83.2711 85.5626 81.6473 85.7453C80.0028 85.928 78.6705 86.1512 78.6705 86.2121C78.6705 86.273 79.3366 86.6586 80.1485 87.024C80.9395 87.4096 81.7098 87.8359 81.8347 87.9779C82.0012 88.1606 81.689 88.6071 80.6481 89.7032C79.7321 90.6571 79.3574 91.2051 79.5448 91.2457C79.7738 91.2863 101.549 88.6274 106.94 87.917C107.69 87.8156 107.815 87.8359 107.815 88.1606C107.835 88.3839 108.127 91.0021 108.501 94.0264L109.188 99.5065L108.231 99.6486C107.107 99.8109 106.565 100.379 106.565 101.353V102.044H111.874H117.182V101.272C117.182 100.197 116.641 99.7703 115.205 99.6486C114.122 99.5674 114.06 99.5268 113.956 98.9179C113.643 97.01 112.561 87.4096 112.644 87.3081C112.727 87.2472 119.68 86.2933 120.659 86.2121C120.68 86.2121 120.804 86.0294 120.929 85.8062C121.096 85.522 121.075 84.8928 120.909 83.6141C120.596 81.2191 120.534 81.1379 119.202 81.1582C118.598 81.1785 117.973 81.2191 117.807 81.2597Z" fill="black"/>
</svg>
