<svg width="149" height="186" viewBox="0 0 149 186" fill="none" xmlns="http://www.w3.org/2000/svg">
<path d="M75.9378 185.78C74.8701 186.185 73.5471 186.022 72.5751 185.366C71.1908 184.436 67.3887 180.987 60.9702 174.842C34.022 149.047 13.1489 120.392 4.42551 97.2178C1.22482 88.7176 0.00492704 82.1269 1.80113e-05 73.349C-0.0024365 67.9469 0.24547 64.8976 1.05546 60.3187C3.04853 49.0322 7.52065 38.7491 14.4301 29.5621C24.7342 15.8595 39.395 6.1927 56.0317 2.13259C65.7761 -0.244542 77.3688 -0.658592 87.3316 1.01222C102.849 3.61829 116.251 10.4647 127.335 21.4541C133.283 27.3506 137.578 33.2423 141.348 40.6757C147.291 52.3957 150.01 66.9313 148.66 79.7497C147.642 89.4288 144.829 97.9801 138.71 110.005C128.563 129.942 111.639 151.906 90.4636 172.611C84.4476 178.493 76.7478 185.474 75.9378 185.78ZM69.1437 131.408C84.4427 132.697 99.6091 128.279 111.852 118.968C114.572 116.897 120.342 111.081 122.434 108.3C128.243 100.579 131.915 91.9106 133.474 82.2511C134.014 78.8949 134.201 71.3908 133.83 67.7935C132.902 58.7501 130.094 50.1428 125.706 42.8945C123.246 38.8295 119.405 33.9973 116.157 30.8846C102.005 17.3258 81.8654 11.5924 62.1532 15.5112C44.7115 18.9771 29.3167 30.5753 21.207 46.3579C17.8272 52.9389 15.6819 60.0897 14.9947 67.0823C14.5381 71.7075 14.8351 79.9543 15.596 83.9024C17.3682 93.0748 20.9002 100.913 26.6389 108.412C30.1832 113.039 36.3661 118.67 41.5304 121.975C49.6475 127.171 59.7331 130.614 69.1437 131.408ZM76.4042 82.9696C76.2814 82.9696 76.0311 82.9988 75.8519 83.0353C75.6727 83.0719 73.8441 83.067 71.7872 83.028C67.6514 82.9501 67.6906 82.9647 67.3126 81.1429L67.1605 80.4122L56.309 80.3489L45.4576 80.2856V57.6395H67.3028V56.7189C67.3028 56.2123 67.4746 55.5547 67.6857 55.2575C68.0613 54.7241 68.1472 54.7168 74.0208 54.7168C78.4021 54.7168 80.0786 54.7972 80.3756 55.0213C80.6186 55.2039 80.8076 55.7593 80.8517 56.4217L80.9254 57.5177L92.28 57.5811L103.635 57.6444L103.571 68.9065L103.507 80.1687L91.9903 80.232L80.4713 80.2953L79.6564 79.7449C79.2097 79.4429 78.8415 79.1043 78.8415 78.9923C78.839 78.8827 79.2808 78.0546 79.8208 77.1534C80.3608 76.2498 80.8026 75.3779 80.8026 75.2123C80.8026 74.7446 75.9967 72.5526 73.7459 71.9924C70.2335 71.118 70.2556 71.3908 73.8834 73.8069C75.6703 74.9979 77.1921 76.0671 77.2632 76.1816C77.3344 76.2985 76.9466 77.0122 76.3992 77.7721C75.8519 78.532 75.4052 79.3795 75.4052 79.6596C75.4076 79.9397 75.6825 80.646 76.0188 81.2281C76.6521 82.3266 76.7944 82.9696 76.4042 82.9696ZM113.126 85.3053C112.493 85.846 112.233 85.8923 109.857 85.8923C107.324 85.8923 107.26 85.8777 106.551 85.1762L105.829 84.4577L105.895 68.5022C105.959 52.8707 105.971 52.537 106.452 52.1765C106.823 51.8989 107.645 51.8087 109.827 51.8014C112.378 51.7941 112.768 51.8501 113.195 52.2739C113.462 52.5394 113.742 53.0046 113.818 53.3091C113.894 53.6159 113.924 60.8058 113.885 69.2914L113.816 84.7159L113.126 85.3053ZM42.522 85.1884C41.8299 85.8752 41.7513 85.8923 39.2305 85.8923C36.8546 85.8923 36.5944 85.846 35.9611 85.3053L35.2714 84.7159V52.7245L35.8507 52.2593C36.3489 51.8599 36.8398 51.7941 39.3115 51.7941C41.928 51.7941 42.2324 51.8404 42.6595 52.3056C43.1062 52.7976 43.1283 53.4649 43.1774 68.6532L43.2314 84.487L42.522 85.1884ZM77.4522 111.951C76.5097 112.545 76.0286 112.681 74.9241 112.674C72.9138 112.659 71.3847 111.727 70.4691 109.953C69.4186 107.922 70.0862 105.294 72.7911 100.803C74.7645 97.5246 74.9634 97.5198 76.9417 100.749C78.5936 103.446 79.8208 106.434 79.8184 107.744C79.8135 109.288 78.7899 111.11 77.4522 111.951ZM63.2185 100.657C61.6059 101.327 60.2412 100.903 58.8961 99.3148C57.6271 97.8218 57.7449 96.2703 59.3526 93.199C61.6746 88.7638 61.9004 88.6859 63.6628 91.7353C65.3368 94.6336 65.8866 96.1875 65.6926 97.4686C65.5061 98.7132 64.3648 100.182 63.2185 100.657ZM89.3051 98.835C86.8948 100.569 83.5026 98.8277 83.5026 95.8587C83.5026 95.2401 83.6302 94.3608 83.7849 93.9054C84.2463 92.5585 86.7548 88.3279 87.0936 88.3279C87.8815 88.3279 90.6035 93.2575 90.8097 95.0525C90.9913 96.6697 90.4612 98.0044 89.3051 98.835Z" fill="#1192EE"/>
<path d="M69.1437 131.409C59.7331 130.615 49.6475 127.171 41.5304 121.976C36.3661 118.67 30.1832 113.039 26.6389 108.412C20.9002 100.913 17.3682 93.0749 15.596 83.9025C14.8351 79.9544 14.5381 71.7075 14.9947 67.0823C15.6819 60.0898 17.8272 52.9389 21.2071 46.358C29.3168 30.5754 44.7115 18.9771 62.1533 15.5113C81.8655 11.5924 102.005 17.3258 116.158 30.8847C119.405 33.9974 123.246 38.8296 125.706 42.8946C130.094 50.1428 132.902 58.7502 133.83 67.7935C134.201 71.3909 134.014 78.8949 133.474 82.2511C131.915 91.9107 128.244 100.579 122.434 108.3C120.342 111.081 114.572 116.897 111.852 118.968C99.6092 128.279 84.4427 132.697 69.1437 131.409ZM76.4042 82.9696C76.7945 82.9696 76.6521 82.3266 76.0188 81.2282C75.6826 80.6461 75.4077 79.9398 75.4052 79.6597C75.4052 79.3796 75.8519 78.532 76.3993 77.7721C76.9466 77.0122 77.3344 76.2986 77.2633 76.1817C77.1921 76.0672 75.6703 74.998 73.8834 73.807C73.8098 73.7583 73.7361 73.7095 73.665 73.6608C73.66 73.4855 73.2182 72.767 72.963 72.577C72.3739 72.1386 72.7543 71.9949 73.7754 72.275C74.281 72.4138 74.8259 72.482 74.9879 72.426C75.0223 72.4138 75.0247 72.3968 75.0002 72.3749C76.7331 72.974 78.9642 73.9726 80.0884 74.6326C79.9559 74.6643 79.9338 74.9176 79.9387 75.5606C79.9411 76.3083 80.005 76.6469 80.1473 76.5933C80.0442 76.7735 79.9338 76.9635 79.8209 77.1535C79.2809 78.0546 78.8391 78.8827 78.8415 78.9923C78.8415 79.1044 79.2097 79.4429 79.6564 79.7449L80.4713 80.2954L91.9904 80.232L103.507 80.1687L103.571 68.9066L103.635 57.6444L92.28 57.5811L81.9563 57.5227C82.0029 57.4886 82.0299 57.4447 82.0299 57.396C82.0299 57.2621 81.9268 57.1525 81.8017 57.1525C81.6765 57.1525 81.4016 56.9795 81.188 56.7701C81.0064 56.5898 80.9107 56.5046 80.8591 56.5241L80.8518 56.4218C80.8076 55.7593 80.6186 55.204 80.3756 55.0213C80.0786 54.7972 78.4022 54.7169 74.0209 54.7169C68.1472 54.7169 68.0613 54.7242 67.6857 55.2576C67.4747 55.5547 67.3028 56.2123 67.3028 56.7189V57.6396L67.2808 56.6045L67.2587 55.5693L67.0279 56.3609C66.8242 57.0575 66.6966 57.1525 65.9455 57.1525C65.4767 57.1525 65.0938 57.2621 65.0938 57.396C65.0938 57.53 65.5896 57.6396 66.1983 57.6396H45.4577V80.2856L56.3091 80.349L67.1605 80.4123L67.3127 81.143C67.6907 82.9648 67.6514 82.9501 71.7872 83.0281C73.8441 83.0671 75.6727 83.0719 75.8519 83.0354C76.0311 82.9989 76.2815 82.9696 76.4042 82.9696ZM113.126 85.3054L113.816 84.716L113.885 69.2914C113.924 60.8058 113.894 53.616 113.818 53.3091C113.742 53.0047 113.462 52.5395 113.195 52.274C112.768 51.8502 112.378 51.7942 109.827 51.8015C107.645 51.8088 106.823 51.8989 106.452 52.1766C105.971 52.537 105.959 52.8707 105.895 68.5023L105.829 84.4578L106.551 85.1763C107.26 85.8777 107.324 85.8923 109.857 85.8923C112.233 85.8923 112.493 85.8461 113.126 85.3054ZM42.5221 85.1885L43.2314 84.487L43.1774 68.6533C43.1283 53.465 43.1062 52.7976 42.6595 52.3056C42.2324 51.8405 41.9281 51.7942 39.3116 51.7942C36.8399 51.7942 36.349 51.8599 35.8507 52.2594L35.2714 52.7246V84.716L35.9611 85.3054C36.5944 85.8461 36.8546 85.8923 39.2306 85.8923C41.7513 85.8923 41.8299 85.8753 42.5221 85.1885ZM77.4523 111.951C78.79 111.11 79.8135 109.289 79.8184 107.744C79.8209 106.434 78.5936 103.446 76.9417 100.749C74.9634 97.5198 74.7646 97.5247 72.7911 100.803C70.0863 105.294 69.4186 107.922 70.4692 109.953C71.3847 111.727 72.9139 112.659 74.9241 112.674C76.0286 112.681 76.5097 112.545 77.4523 111.951ZM63.2185 100.657C64.3648 100.182 65.5061 98.7133 65.6927 97.4687C65.8866 96.1876 65.3368 94.6336 63.6628 91.7353C61.9005 88.686 61.6746 88.7639 59.3527 93.1991C57.745 96.2704 57.6271 97.8218 58.8961 99.3148C60.2412 100.903 61.6059 101.327 63.2185 100.657ZM89.3051 98.835C90.4612 98.0045 90.9914 96.6698 90.8097 95.0526C90.6036 93.2575 87.8815 88.3279 87.0936 88.3279C86.7549 88.3279 84.2464 92.5585 83.7849 93.9054C83.6303 94.3609 83.5026 95.2401 83.5026 95.8587C83.5026 98.8277 86.8948 100.569 89.3051 98.835ZM73.4244 71.9121C72.5923 71.727 71.6645 71.5638 71.2448 71.5541C71.505 71.4859 72.2315 71.6223 73.4244 71.9121ZM80.9671 57.4764C80.9818 57.491 80.999 57.5056 81.0162 57.5178H80.9254L80.918 57.4082C80.9328 57.4374 80.9499 57.4618 80.9671 57.4764ZM80.7658 75.356C80.7806 75.2756 80.7855 75.205 80.7757 75.1417C80.7929 75.1685 80.8027 75.1928 80.8027 75.2123C80.8027 75.2415 80.7904 75.2902 80.7658 75.356Z" fill="#FCFDFD"/>
</svg>
