<svg width="149" height="186" viewBox="0 0 149 186" fill="none" xmlns="http://www.w3.org/2000/svg">
<ellipse cx="74" cy="70" rx="62" ry="59" fill="white"/>
<path d="M69.7337 0.101135C51.3473 1.302 34.9986 8.19583 22.1867 20.1822C10.2414 31.3458 3.21477 44.4663 0.591492 60.589C-0.134594 64.9254 -0.204861 75.3996 0.45096 79.6026C2.04367 89.7432 5.53357 99.1278 11.5296 109.246C21.4606 125.991 36.4508 145.116 63.1287 175.004C73.1533 186.235 73.0831 186.168 74.9334 185.946C75.4487 185.879 76.1514 185.634 76.4793 185.39C77.2288 184.878 85.2392 176.05 93.6946 166.443C116.016 141.069 130.186 122.255 139.227 105.955C149.439 87.5861 151.688 68.3501 145.785 49.9147C141.757 37.3056 134.028 25.8974 123.745 17.3357C112.268 7.79555 98.6132 2.05809 83.5294 0.45694C79.4071 0.0344238 73.3876 -0.121246 69.7337 0.101135ZM78.6107 13.444C86.7382 14.0222 93.2261 15.7123 100.745 19.226C118.382 27.4319 130.678 43.3099 133.793 61.9233C134.309 65.0144 134.496 72.9312 134.121 76.3336C132.294 93.4793 122.668 108.735 107.56 118.364C100.276 123.012 91.8911 126.147 83.2951 127.415C79.9458 127.926 71.6309 128.104 68.2581 127.748C58.3271 126.725 49.3096 123.679 41.2289 118.586C32.0709 112.826 24.974 105.177 20.149 95.8365C17.2681 90.2547 15.5114 84.962 14.5043 78.8243C13.9187 75.2884 13.9187 66.0596 14.5043 62.3458C16.3546 50.604 22.0696 39.5961 30.8295 30.9232C43.2432 18.6255 60.8567 12.1987 78.6107 13.444Z" fill="#0D621A"/>
<path d="M56.8047 31.9462C53.8769 34.9039 44.508 45.3781 44.4612 45.8006C44.3441 46.5567 45.0702 46.8458 46.7097 46.6901C47.4358 46.6012 48.443 46.6234 48.9348 46.7346L49.8249 46.9125L44.2035 53.6952C40.6434 57.9871 38.5588 60.6557 38.5588 60.9893C38.5588 61.7231 39.4957 61.9678 41.955 61.8566C43.1261 61.8121 44.2504 61.8343 44.4846 61.901C44.8594 62.0345 44.0396 63.1686 39.2849 69.2174C36.1932 73.1758 33.5699 76.645 33.4996 76.9563C33.3825 77.3788 33.4762 77.6679 33.8275 78.0015C34.296 78.4463 34.5068 78.4463 43.6883 78.4463H53.0805V82.5381C53.0805 85.0955 53.1742 86.6077 53.3148 86.6077C53.4319 86.6077 55.4462 85.896 57.765 85.0288L61.981 83.4276V80.8035V78.1794L65.4474 78.1127L68.8905 78.046L66.5483 76.5782C65.2601 75.7777 64.0187 74.9104 63.7845 74.6435C63.1755 74.0209 62.9178 72.731 63.1755 71.8193C63.4331 70.9742 64.7214 69.7956 65.6348 69.5732C66.5249 69.3508 67.5554 69.7066 74.1839 72.5087C77.4864 73.9097 80.3674 75.0438 80.5547 75.0438C80.7655 75.0438 80.9763 74.9549 81.0466 74.8437C81.1169 74.7547 79.0089 71.9749 76.3622 68.6837C73.7155 65.3924 71.4669 62.5237 71.3264 62.3013C71.1156 61.9455 71.2796 61.9233 73.6686 61.9233C76.573 61.9233 77.4396 61.7231 77.4396 61.0115C77.4396 60.7447 75.8469 58.632 73.6218 55.9412C67.7428 48.9139 66.1735 46.9792 66.2672 46.8903C66.2906 46.8458 67.4383 46.7568 68.7734 46.7124C70.1085 46.6457 71.303 46.49 71.4435 46.3566C71.8885 45.934 71.2561 45.0667 67.4852 40.9749C59.0766 31.835 58.6784 31.457 57.9758 31.457C57.601 31.457 57.1092 31.6794 56.8047 31.9462Z" fill="#0D621A"/>
<path d="M95.6152 64.8809C94.9828 65.3257 95.2873 65.9039 97.0205 67.7052C97.8403 68.5725 98.5195 69.3508 98.5195 69.462C98.5195 69.5509 97.8637 69.929 97.0674 70.2626C96.2476 70.5961 92.1487 72.4641 87.9327 74.3989C83.7167 76.3558 80.2034 77.9347 80.1566 77.9347C80.1097 77.9347 77.0648 76.5782 73.4344 74.9103C66.4546 71.708 66.0798 71.6191 66.0798 72.9311C66.0798 73.4871 66.4078 73.754 69.7103 75.6442C75.1442 78.7798 76.3153 79.5359 76.0811 79.7583C75.9874 79.8472 73.8326 80.8257 71.3264 81.9154C65.9862 84.2281 57.3902 87.4972 46.6395 91.2776C42.4 92.7898 38.7696 94.1019 38.6291 94.2353C38.1841 94.5467 38.2543 95.236 38.7696 95.5029C39.0273 95.6141 40.5028 95.7253 42.0721 95.7253C43.8991 95.7253 44.8828 95.8142 44.8359 95.9477C44.7891 96.0811 44.227 96.5481 43.5946 97.0151C42.7514 97.6155 42.4235 98.0158 42.4235 98.3939C42.4235 98.9498 42.4469 98.9498 44.3675 98.9053L46.2881 98.8831L45.1404 100.462C43.9927 102.041 43.8522 102.33 43.9225 103.108C43.9693 103.909 45.1873 103.509 48.9582 101.418C54.2751 98.4828 56.9686 97.0818 62.2386 94.6134C66.2906 92.7009 73.3407 89.721 73.7857 89.721C73.8794 89.721 73.5281 90.2992 73.0362 90.9886C71.0922 93.7016 68.586 96.5926 66.1501 98.9276C63.0818 101.885 62.8007 102.463 62.9647 105.688C63.2223 110.647 64.6042 110.958 66.197 106.422C66.5014 105.555 66.7357 104.243 66.7825 103.22L66.8528 101.485L68.9373 99.3279C70.0616 98.127 71.3733 96.726 71.8417 96.1923L72.6849 95.236L72.8254 97.749C73.0128 100.729 73.5984 102.997 74.7226 105.177C75.6361 106.911 76.2919 107.623 76.8306 107.445C77.2991 107.267 77.6738 105.888 77.6738 104.22C77.6738 103.464 77.7441 102.842 77.8378 102.842C77.9315 102.842 78.5873 103.286 79.2899 103.82C81.3277 105.332 83.623 106.311 84.232 105.955C84.677 105.688 84.3023 104.598 83.2483 103.019C82.2646 101.552 78.2359 97.6155 77.018 96.9039C76.6432 96.6815 75.8235 95.8142 75.2379 94.9692L74.1605 93.457L75.8703 91.2332C76.7838 90.0101 77.7675 88.7647 78.0251 88.4979C78.3296 88.1643 79.9692 87.4527 82.6862 86.5187C86.2932 85.2511 87.0895 85.051 88.448 85.051H90.0173L89.2678 86.9857C88.8462 88.0753 88.3543 89.721 88.2138 90.6772C87.8625 92.7676 88.0264 96.2368 88.5651 97.9046C89.1741 99.8171 89.8533 99.7059 91.0479 97.4821C92.2892 95.1249 92.7577 93.0567 92.7577 89.8322C92.7577 88.231 92.6406 86.5632 92.4766 86.0739C92.3361 85.5847 92.2658 85.1399 92.3127 85.0732C92.5937 84.8286 98.2853 85.9405 98.2853 86.2518C98.2853 86.2741 98.0745 86.8745 97.8169 87.5861C96.5287 91.033 96.7629 95.6141 98.379 98.594C98.8709 99.4613 99.3393 99.4613 99.9014 98.594C101.19 96.5926 101.564 91.7891 100.698 88.6535C100.3 87.2303 100.276 87.0524 100.604 87.1636C101.33 87.4082 104.516 89.3207 105.406 90.0323L106.319 90.7439L105.874 91.967C105.242 93.7016 105.312 96.7482 105.991 98.4383C106.717 100.195 107.045 100.395 107.631 99.4835C108.333 98.3939 108.661 96.7038 108.568 94.6579C108.521 93.6571 108.521 92.8343 108.591 92.8343C108.661 92.8343 109.528 93.7461 110.535 94.8358C111.542 95.9477 112.549 96.8372 112.784 96.8372C113.346 96.8372 113.744 96.3924 113.744 95.792C113.744 95.1916 110.84 91.8558 108.755 90.0323L107.303 88.787L110.769 88.9426C114.376 89.0983 114.915 89.0094 114.915 88.1643C114.915 87.9642 114.704 87.6083 114.423 87.3637C113.978 86.9857 113.463 86.9412 109.317 86.8745L104.726 86.8078L102.478 85.7181C99.8546 84.4283 96.4115 83.3164 94.4909 83.1162C93.7414 83.0495 93.1324 82.9161 93.1324 82.8494C93.1324 82.6715 105.125 78.335 111.519 76.2224C113.205 75.6664 114.704 75.1105 114.868 74.9771C115.266 74.688 115.149 73.6872 114.681 73.4649C114.493 73.3759 114.048 73.2425 113.674 73.1535C113.065 73.0423 113.041 73.0201 113.416 72.4864C113.603 72.1973 113.744 71.6858 113.697 71.33C113.627 70.7963 113.533 70.7073 112.924 70.7296C112.549 70.7518 110.582 71.2855 108.591 71.9527C105.218 73.0646 104.961 73.198 104.961 73.7095C104.961 74.132 105.125 74.3099 105.663 74.4656C107.303 74.9326 107.303 74.8659 105.663 76.1112L104.117 77.2676H102.384C101.283 77.2676 100.628 77.1786 100.628 77.023C100.628 76.8895 101.002 76.467 101.447 76.0667C102.244 75.3551 102.501 74.5545 102.056 74.2877C101.939 74.1987 101.19 74.0875 100.417 74.0208C98.9177 73.8652 98.7538 73.7317 99.3627 73.2425C99.5735 73.0868 100.019 72.5531 100.393 72.0639C100.979 71.241 101.283 71.0854 103.227 70.4627C108.099 68.906 111.776 67.6385 112.058 67.4161C112.479 67.1047 112.315 66.1485 111.823 65.8372C111.495 65.6593 110.418 65.9039 106.717 67.0825L102.033 68.5502L100.674 67.4828C99.3627 66.4376 96.4818 64.5918 96.1773 64.5918C96.1071 64.5918 95.8494 64.7253 95.6152 64.8809Z" fill="#0D621A"/>
</svg>
