<svg width="149" height="186" viewBox="0 0 149 186" fill="none" xmlns="http://www.w3.org/2000/svg">
<ellipse cx="74" cy="74" rx="61" ry="63" fill="white"/>
<path d="M66.8637 0.297653C62.9953 0.645584 56.1022 2.06627 52.292 3.31299C27.6569 11.2573 8.46075 31.4369 2.2947 55.9075C-0.817403 68.1719 -0.759233 79.0155 2.44013 91.2218C9.3333 117.374 33.0377 149.992 67.7362 181.015C72.7679 185.509 73.9023 186.234 75.3565 185.944C77.5088 185.451 97.8102 166.026 107.583 155.037C129.397 130.595 142.427 108.879 147.255 89.0183C148.651 83.3356 149 80.0013 149 73.3037C149 66.6932 148.709 63.9968 147.255 57.4152C145.044 47.5284 139.693 36.5397 132.945 28.1026C128.233 22.2169 121.253 15.9252 114.854 11.7791C105.227 5.5455 92.953 1.28343 81.6971 0.268661C77.7997 -0.108261 70.8192 -0.0792694 66.8637 0.297653ZM84.1693 13.5768C90.8298 14.6495 95.4543 16.0992 101.039 18.7956C105.227 20.8252 109.706 23.7245 113.254 26.6529C123.521 35.235 130.327 45.9337 133.439 58.488C134.923 64.3737 135.068 65.7364 135.068 73.1588C135.068 80.6391 134.748 83.1906 133.003 89.1633C127.535 108.125 112.527 123.55 93.622 129.667C78.2941 134.625 62.4718 133.524 48.1038 126.536C41.4433 123.289 35.6262 119.056 30.6818 113.866C19.6585 102.297 13.9578 88.3805 13.9287 72.9558C13.8997 48.0502 29.722 25.4642 53.3391 16.6211C57.1201 15.2004 63.0826 13.7217 66.5728 13.3158C68.0852 13.1419 69.8012 12.9389 70.3539 12.8809C72.6225 12.62 80.8536 13.0259 84.1693 13.5768Z" fill="#EAA23E"/>
<path d="M72.3898 27.1748C70.9937 27.6097 69.9176 28.3056 68.8705 29.4363C68.2888 30.0452 64.0424 37.0617 59.4469 45.0349C54.8515 53.0082 48.9472 63.185 46.3586 67.65C36.4406 84.7273 31.7288 92.9325 31.0599 94.1792C30.071 96.0348 30.0419 100.123 31.0308 101.921C32.0778 103.892 33.2703 105.052 35.1318 105.893L36.8478 106.646L74.9202 106.588L112.964 106.502L114.389 105.806C117.094 104.472 118.81 102.007 119.13 98.9922C119.45 95.8318 120.497 97.8034 100.312 63.011C97.1703 57.5892 91.7314 48.1662 88.2412 42.0486C84.7219 35.9309 81.4353 30.4221 80.8827 29.7842C79.3121 27.9576 77.6251 27.1168 75.182 27.0298C74.0477 26.9719 72.797 27.0298 72.3898 27.1748ZM76.6653 49.6739C78.1777 50.6887 78.265 51.1816 77.7996 58.7199C77.5379 62.5181 77.2179 68.2299 77.0143 71.4192C76.6362 77.9137 76.549 78.2327 74.7166 78.2327C72.7679 78.2327 72.8261 78.4356 71.9826 65.6204C71.5754 59.2418 71.2264 53.4141 71.2264 52.6892C71.2264 49.7899 74.2513 48.1082 76.6653 49.6739ZM76.9271 88.2065C77.7706 89.0473 77.916 89.3952 77.916 90.555C77.916 91.6568 77.7706 92.0627 77.0725 92.7295C76.6072 93.1934 75.9091 93.6573 75.4728 93.7733C74.3676 94.0342 73.3205 93.6863 72.3607 92.7295C71.6627 92.0627 71.5173 91.6568 71.5173 90.555C71.5173 89.3952 71.6627 89.0473 72.5061 88.2065C73.3205 87.3947 73.7277 87.2207 74.7166 87.2207C75.7055 87.2207 76.1127 87.3947 76.9271 88.2065Z" fill="#EAA23E"/>
</svg>
