<svg width="221" height="364" viewBox="0 0 221 364" fill="none" xmlns="http://www.w3.org/2000/svg">
<path fill-rule="evenodd" clip-rule="evenodd" d="M83 1.09045C77.225 1.88745 71.6 2.93145 70.5 3.40945C69.4 3.88745 66.048 4.84845 63.052 5.54445C60.056 6.24045 55.781 7.83545 53.552 9.08845C51.323 10.3415 47.939 12.1745 46.032 13.1625C44.124 14.1505 40.074 17.6244 37.032 20.8824C28.403 30.1244 25.759 32.7065 20.212 37.3085C11.513 44.5255 9.201 48.7885 8.513 58.8795C7.739 70.2135 8.795 73.6985 16.375 84.8195C22.649 94.0235 22.649 94.0235 24.339 111.023C28.758 155.467 28.607 189.587 23.851 221.523C23.319 225.098 22.518 230.948 22.071 234.523C21.625 238.098 20.717 243.048 20.054 245.523C19.391 247.998 18.149 252.723 17.294 256.023C15.402 263.324 12.296 272.964 10.529 277.023C9.81001 278.673 8.89099 281.148 8.48599 282.523C8.08199 283.898 6.007 288.432 3.875 292.599C1.744 296.765 0 300.873 0 301.726C0 305.254 6.774 307.416 12.875 305.835C17.098 304.741 20.13 299.572 25.962 283.523C28.261 277.198 31.216 269.098 32.53 265.523C34.537 260.06 39 241.286 39 238.305C39 237.81 39.48 237.702 40.067 238.064C40.653 238.427 40.88 238.976 40.571 239.285C40.262 239.594 41.063 241.236 42.351 242.935C43.639 244.633 46.476 248.601 48.656 251.753C50.835 254.904 53.828 258.954 55.307 260.753C66.662 274.563 73.453 287.086 76.073 299.043C77.763 306.755 77.845 325.593 76.217 332.023C75.521 334.773 74.774 337.923 74.557 339.023C74.058 341.55 70.984 348.858 70.138 349.527C69.38 350.127 63 362.127 63 362.952C63 363.822 92.785 363.633 93.167 362.761C93.35 362.342 96.785 360.934 100.801 359.632C104.816 358.33 109.674 356.198 111.595 354.894C113.517 353.59 115.449 352.523 115.889 352.523C116.33 352.523 117.546 351.577 118.593 350.421C119.639 349.264 121.736 347.676 123.254 346.892C128.439 344.21 142.755 327.15 148.737 316.523C154.221 306.782 157.617 299.413 158.337 295.693C158.692 293.862 159.636 290.937 160.436 289.193C161.236 287.45 162.366 283.548 162.946 280.523C163.527 277.498 164.461 272.773 165.022 270.023C165.582 267.273 165.828 263.898 165.567 262.523C165.307 261.148 165.434 258.223 165.85 256.023C166.606 252.023 166.606 252.023 167.799 257.023C169.514 264.214 172 284.619 172 291.502C172 294.734 171.561 300.673 171.025 304.701C170.488 308.728 169.914 313.148 169.749 314.523C169.584 315.898 169.168 317.473 168.824 318.023C168.479 318.573 167.94 320.649 167.626 322.637C166.9 327.223 165.982 329.61 161.454 338.676C159.435 342.717 157.405 347.291 156.942 348.841C156.119 351.597 156.172 351.645 159.3 351C164.441 349.941 170.125 347.893 175.645 345.114C178.475 343.689 181.233 342.523 181.773 342.523C182.313 342.523 183.315 341.848 184 341.023C185.068 339.737 184.729 339.523 181.622 339.523C178.399 339.523 178 339.24 178 336.953C178 335.54 179.403 332.345 181.117 329.853C184.554 324.858 186.727 317.931 187.495 309.523C187.771 306.498 188.252 301.323 188.564 298.023C189.089 292.472 187.191 273.077 184.985 261.444C183.126 251.641 171.566 222.126 167 215.523C166.049 214.148 163.138 208.973 160.53 204.023C157.923 199.073 155.22 194.348 154.523 193.523C153.193 191.947 149.173 184.777 144.432 175.523C142.883 172.498 140.642 168.448 139.453 166.523C136.938 162.45 134 151.519 134 146.232C134 140.928 138.61 129.429 141.799 126.777C148.918 120.858 158.423 116.941 174 113.509C182.224 111.696 197.746 103.896 204.19 98.3385C211.757 91.8105 217.517 82.5425 219.543 73.6335C221.961 63.0015 221.522 61.5214 215.008 58.3484C211.988 56.8774 209.324 55.8664 209.088 56.1024C208.852 56.3374 207.724 55.9425 206.58 55.2245C205.436 54.5055 200.9 52.3834 196.5 50.5094C177.386 42.3644 171.296 37.7275 163.5 25.3815C160.334 20.3675 148.342 10.6434 142.72 8.53145C140.949 7.86545 138.6 6.93746 137.5 6.46846C136.4 5.99946 133.7 5.16145 131.5 4.60545C129.3 4.05045 124.575 2.86245 121 1.96545C112.084 -0.270549 95.609 -0.649549 83 1.09045ZM115.644 15.9725C121.046 16.7105 133.258 20.6904 139 23.5854C145.679 26.9524 150.946 31.8375 155.4 38.7975C157.239 41.6715 161.324 46.0484 164.478 48.5234C167.632 50.9984 170.727 53.4904 171.356 54.0614C171.985 54.6324 174.3 55.9185 176.5 56.9205C178.7 57.9225 181.807 59.3674 183.404 60.1324C185.001 60.8974 186.858 61.5234 187.531 61.5234C189.477 61.5234 190.932 63.8935 191.445 67.9015C191.956 71.8955 195.41 77.0364 198.258 78.0424C199.804 78.5884 199.848 78.9024 198.618 80.6584C196.93 83.0694 186.67 90.5445 182.5 92.4035C177.56 94.6055 165.776 98.2865 161.519 98.9585C159.329 99.3035 157.101 100.022 156.569 100.554C156.036 101.087 154.816 101.523 153.857 101.523C152.899 101.523 147.251 103.129 141.307 105.093C129.757 108.908 119.654 111.307 111.385 112.197C104.522 112.937 92.867 109.301 87.998 104.902C83.87 101.173 80.988 93.9954 80.995 87.4624C80.999 84.2484 80.397 82.2534 78.961 80.7124C76.581 78.1564 77.058 78.2575 73.399 79.5365C68.677 81.1875 66.697 87.3365 67.979 96.3745C69.371 106.189 71.038 109.716 77.056 115.577C85.096 123.409 96.044 127.947 106 127.575C108.475 127.482 112.596 127.694 115.157 128.046C119.807 128.684 119.813 128.69 118.93 131.767C118.444 133.463 117.987 139.389 117.915 144.936C117.74 158.393 117.869 158.757 134.193 191.023C140.785 204.053 143.199 210.545 146.649 224.523C148.166 230.672 148.482 235.689 148.399 252.372C148.343 263.681 147.884 273.01 147.366 273.372C146.438 274.021 143.908 282.963 143.423 287.309C143.081 290.38 139.689 298.515 138.75 298.519C138.337 298.521 137.99 299.311 137.978 300.273C137.966 301.235 137.178 303.033 136.228 304.266C134.569 306.42 134.492 305.798 134.293 288.766C134.179 279.008 133.643 268.773 133.102 266.023C132.561 263.273 131.467 257.648 130.67 253.523C128.396 241.754 116.807 213.841 109.692 202.995C101.981 191.24 99.533 188.23 79.364 165.709C68.065 153.093 65.315 149.792 64.119 147.409C63.398 145.971 61.821 143.721 60.615 142.409C56.834 138.294 50.901 126.664 49.291 120.214C48.442 116.809 47.294 113.455 46.74 112.76C46.181 112.059 45.682 104.95 45.617 96.7605C45.506 82.8265 45.653 81.6315 48.316 74.8305C50.206 70.0005 52.342 66.5454 54.816 64.3134C59.589 60.0064 65.353 56.4715 68.224 56.0905C69.476 55.9245 71.316 55.4445 72.314 55.0245C75.362 53.7405 86.906 55.4594 93.377 58.1604C101.122 61.3924 109.326 65.4644 109.99 66.4044C111.148 68.0454 118.818 70.8915 123.232 71.3175C126.898 71.6715 129.264 71.1795 133.732 69.1335C136.904 67.6805 140.175 66.0435 141 65.4955C144.163 63.3925 151.26 60.5224 153.333 60.5084C158.419 60.4724 158.104 58.9195 152.024 54.0435C148.711 51.3855 146 48.9365 146 48.5995C146 47.2625 136.452 38.1325 132.302 35.5005C128.362 33.0015 127.119 32.7315 120.695 32.9835C114.846 33.2135 111.816 34.0144 104.5 37.2644C99.55 39.4644 93.475 41.5975 91 42.0065C88.525 42.4155 86.05 43.1024 85.5 43.5334C84.082 44.6454 67.15 42.9074 60.274 40.9454C54.313 39.2434 47 35.6754 47 34.4694C47 33.7194 54.252 27.5755 56.869 26.1085C57.766 25.6055 58.725 24.8815 59 24.4985C60.6 22.2715 71.933 18.2505 83 15.9835C88.993 14.7555 106.699 14.7495 115.644 15.9725ZM130.171 47.1784C132.658 49.4284 132.473 53.0784 129.777 54.9664C126.736 57.0974 124.282 56.9184 122.972 54.4714C121.338 51.4174 122.181 48.2344 125 46.8134C128.155 45.2224 127.998 45.2114 130.171 47.1784ZM57.881 164.023C63.299 170.623 69.705 178.086 72.116 180.607C86.99 196.158 96.261 208.902 102.973 223.023C108.212 234.046 113.863 250.16 114.674 256.393C115.005 258.94 115.61 261.473 116.019 262.023C117.294 263.742 118.073 292.45 117.185 305.023C116.47 315.153 115.831 318.226 113.087 324.745C108.677 335.222 103.38 341.683 96.923 344.461C94.108 345.672 91.595 346.451 91.337 346.194C91.079 345.936 91.45 343.767 92.16 341.374C92.982 338.605 93.461 331.025 93.476 320.523C93.501 303.177 92.199 293.922 88.836 287.538C87.826 285.621 87 283.635 87 283.124C87 280.55 74.759 260.825 66.359 249.865C54.848 234.845 50.569 226.107 46.601 209.523C44.468 200.606 44.1 195.226 44.007 171.523C43.899 144.123 43.676 146.523 46.051 149.523C47.14 150.898 52.464 157.423 57.881 164.023Z" fill="white"/>
</svg>
