<svg width="259" height="245" viewBox="0 0 259 245" fill="none" xmlns="http://www.w3.org/2000/svg">
<ellipse cx="130.268" cy="136.21" rx="106" ry="108" fill="#EAE8E9"/>
<path d="M143.881 26.3898C143.64 25.6203 143.446 25.5195 143.737 24.9586C145.483 24.8828 149.595 25.6491 151.365 26.017C163.741 28.5885 173.155 32.625 184.148 38.5026C191.156 42.86 201.978 50.3454 207.349 56.6126C211.184 52.932 214.983 49.2155 218.748 45.4635C220.924 43.3215 223.727 40.7353 225.768 38.5608C227.308 40.3564 229.318 42.2886 231.004 43.9896C226.968 47.8355 222.985 51.7362 219.057 55.6907C217.828 56.9277 213.595 61.3464 212.33 62.2383C214.675 63.9099 221.708 74.0566 223.352 76.8044C225.267 79.6409 228.05 84.9825 229.465 88.2348C238.017 84.7022 246.599 81.2421 255.211 77.855C255.945 78.4912 257.673 83.2657 258.185 84.5638L258.29 84.8649C250.964 88.0699 242.935 90.582 235.733 94.1415C235.163 94.4226 234.683 94.1185 234.294 94.5429C234.73 95.6174 234.884 95.4012 234.605 96.2593C234.358 96.4183 233.761 96.6998 233.834 97.0724C234.811 101.95 236.94 106.897 237.814 111.856C239.66 122.336 240.416 133.206 239.285 143.807C239.224 144.392 239.603 144.939 239.557 145.516C239.246 147.122 238.69 148.481 238.451 150.125C238.348 150.827 238.531 152.169 238.482 152.314C237.755 154.524 236.627 161.103 235.8 162.81L235.525 162.721L235.452 162.9C234.458 165.346 233.775 168.549 232.828 170.924C230.121 177.701 225.6 187.735 221.14 193.365C223.605 195.444 232.196 204.33 234.637 206.95C234.842 207.097 236.132 208.367 236.397 208.619C234.688 210.248 232.918 212.087 231.239 213.766L216.763 199.351C203.528 217.447 181.172 232.443 159.565 238.397C169.322 219.455 170.181 206.179 163.876 185.768C163.609 190.012 163.719 194.093 163.051 198.35C160.525 214.458 151.641 230.99 137.472 239.669C129.709 244.424 121.583 244.206 112.867 244.404C115.51 239.718 117.82 235.772 119.037 230.435C121.735 219.643 119.685 207.017 112.832 198.033C108.168 191.919 104.118 186.889 99.9109 180.112L99.898 180.293C99.1585 190.013 90.6284 216.058 83.2225 222.34C80.4053 224.731 76.7376 225.877 73.059 225.516C63.316 224.579 48.0358 207.762 41.8519 200.179C36.6332 204.972 30.9452 210.877 25.8905 215.919C24.143 214.283 22.4515 212.587 20.8196 210.835C26.3952 205.479 31.8359 199.85 37.3834 194.43C35.4088 191.6 33.5803 188.671 31.905 185.655C17.3973 159.207 15.2956 129.059 23.707 100.291C15.9521 97.6467 7.81732 95.1402 0 92.5658C0.740462 90.3029 1.40773 88.0169 2.00035 85.711C3.58995 86.2141 5.08214 86.672 6.63381 87.2882C10.7099 88.5041 14.7681 89.7802 18.8065 91.116C20.4216 91.6375 24.3875 92.8458 25.7338 93.5253C26.3546 92.9813 27.1751 90.9166 27.5481 90.0874C31.1557 82.0703 35.4753 74.3997 41.0001 67.5053C35.5478 61.6331 28.6692 54.646 22.8819 49.1265C24.3163 47.7682 25.8068 46.2128 27.2113 44.8036L27.8889 44.2276C28.4259 44.4306 42.2303 58.225 43.0516 59.2908C43.853 59.9967 44.7873 60.9453 45.5743 61.6992C52.4761 53.8366 62.8391 44.7725 71.9746 39.574C72.6125 40.2283 75.3565 38.088 76.2544 37.6029C85.8818 32.4271 96.732 29.5271 107.297 26.935C108.901 26.5414 112.98 25.1222 114.058 26.5422C113.349 28.7644 112.615 30.9791 111.857 33.1854C103.025 34.7521 94.4159 37.0834 86.3232 41.0492C94.2697 55.9143 85.2589 70.2468 73.9654 79.6702C72.1477 81.187 70.2866 83.5489 68.4429 84.9549C70.0805 86.3697 74.6577 91.0074 76.1922 92.7274C81.1341 97.1516 78.9523 98.8235 81.6834 103.911C83.8651 107.975 85.9528 109.845 87.6039 114.54C83.9828 119.232 76.3381 125.513 72.1629 130.129C71.3387 131.04 68.8764 133.281 68.3984 134.186C69.8032 135.321 81.7715 147.572 82.7362 149.005C83.7481 148.84 87.4 144.774 88.7423 143.663C88.807 151.079 88.7228 157.02 88.2048 164.433C86.6184 162.851 84.6043 160.723 82.966 159.251C80.9079 161.248 70.0661 171.51 69.4477 172.858L78.5039 182.017C79.9084 183.43 82.6424 186.02 83.8257 187.411C84.6168 188.19 82.3 193.879 81.8836 195.064C75.8889 189.446 70.2751 183.08 64.4288 177.627C61.8914 180.137 48.6637 192.672 47.4422 194.807C52.7992 200.754 69.1697 221.059 77.4643 216.877C79.6588 215.166 81.1431 213.038 82.3665 210.56C97.4712 179.972 96.3514 141.606 92.4892 108.556C87.4183 102.498 83.6257 97.0892 85.4841 88.7658C86.7572 83.0648 90.1283 81.369 94.3848 78.3418C94.8934 77.98 96.9349 75.3461 97.4913 74.6644C100.033 71.5501 102.49 69.0568 105.925 66.9241C106.5 66.8989 106.794 66.8324 107.312 67.045C108.22 66.7708 109.007 66.4614 109.858 66.1067C120.789 61.5497 133.247 60.2494 144.655 63.8328C147.705 64.7907 150.826 65.2941 153.639 67.0164C156.917 68.7775 159.891 70.8346 162.211 73.7836C163.753 75.7455 165.178 79.1962 167.107 80.7355C173.336 85.7027 181.399 88.2854 188.731 91.2102C189.546 91.5352 190.674 92.2003 191.193 92.8713L191.303 92.2884C191.798 93.7191 191.587 96.2674 191.274 97.6807C189.083 107.557 181.086 114.337 171.655 117.347C159.068 121.363 145.463 121.551 148.503 139.441C150.126 144.571 152.315 148.578 155.139 153.112C164.838 168.687 175.104 186.402 175.096 205.331C175.593 211.468 174.761 219.038 173.231 224.97C184.67 219.251 195.019 211.578 203.812 202.297C206.318 199.658 208.712 196.693 211.111 193.926C205.669 188.149 199.917 182.675 194.515 176.923C190.263 181.814 184.232 187.567 179.615 192.331C179.013 189.551 178.474 187.02 177.681 184.281C181.444 180.911 185.874 175.979 189.72 172.289C185.096 167.072 178.029 160.376 172.999 155.337C171.065 157.442 169.097 159.515 167.092 161.556C165.765 159.361 164.324 157.129 162.955 154.95L167.567 149.852C165.459 147.449 154.065 136.97 153.663 134.997C153.348 133.45 154.425 131.884 155.193 130.631L156.412 130.014C159.766 132.03 170.999 145.006 172.526 145.22L172.901 144.841C173.537 143.796 177.06 140.194 178.107 139.108C181.752 135.329 185.421 131.573 189.113 127.84C186.638 125.341 183.789 122.521 181.622 119.791C183.115 118.741 185.057 117.322 186.405 116.157C188.045 117.771 191.519 122.148 193.156 122.957L193.741 122.863C194.485 122.634 220.016 96.2224 223.086 93.1535C218.254 82.9504 214.185 76.4512 207.082 67.635C201.579 72.5747 195.323 79.0942 190.045 84.4141C187.8 83.3838 184.66 82.3775 182.276 81.5424C188.669 74.9626 195.455 68.5882 201.755 62.0514C189.888 50.008 175.216 41.0939 159.056 36.1077C154.322 34.6696 150.873 34.02 146.075 32.9821C145.434 31.4218 144.283 27.9452 143.881 26.3898Z" fill="#29616E"/>
<path d="M175.096 205.331C174.499 204.439 174.766 203.717 174.683 202.402L174.252 202.717C172.969 201.812 174.105 201.126 173.868 199.931C173.535 198.26 173.116 196.49 172.859 194.806C170.007 176.135 158.126 161.47 149.627 145.224C149.027 144.08 147.067 139.356 147.715 138.27C148.082 138.712 148.21 138.943 148.503 139.441C150.126 144.572 152.315 148.578 155.139 153.112C164.838 168.687 175.104 186.403 175.096 205.331Z" fill="#A1E0FF"/>
<path d="M77.4643 216.878C77.8288 217.106 77.808 217.083 77.982 217.476C77.4416 218.025 74.8237 218.492 74.2097 218.611C69.0148 219.615 47.2158 197.942 46.8494 195.019L47.4422 194.807C52.7993 200.754 69.1697 221.06 77.4643 216.878Z" fill="#A1E0FF"/>
<path d="M6.63379 87.2883C10.7099 88.5043 14.7681 89.7804 18.8065 91.1161C20.4216 91.6376 24.3875 92.846 25.7338 93.5255L25.3314 93.9122C24.1787 94.0612 8.49192 89.0786 6.94221 88.2545C6.84136 87.8808 6.76254 87.6464 6.63379 87.2883Z" fill="#FBFEFF"/>
<path d="M27.2113 44.8038L27.8889 44.2278C28.4259 44.4308 42.2303 58.2253 43.0516 59.291C43.3612 59.8399 43.736 60.2325 43.6295 60.7156C42.0969 59.6239 40.7183 57.895 39.3326 56.6397C35.4773 53.1478 31.1535 47.9702 27.2113 44.8038Z" fill="#A1E0FF"/>
<path d="M82.7362 149.005L82.2738 149.118C80.7608 148.422 69.3126 136.424 68.2334 134.781L68.3984 134.186C69.8032 135.321 81.7715 147.572 82.7362 149.005Z" fill="#A1E0FF"/>
<path d="M69.4478 172.858L78.5039 182.017C79.9085 183.43 82.6424 186.02 83.8257 187.411L83.3222 187.703C81.747 187.302 71.7634 176.193 69.8886 174.468C69.2458 173.876 69.2891 173.606 69.4478 172.858Z" fill="#A1E0FF"/>
<path d="M234.637 206.95L234.272 207.335C233.513 207.069 231.371 205.005 230.894 204.381C229.68 202.789 220.936 194.913 220.772 193.709L221.14 193.366C223.605 195.444 232.196 204.33 234.637 206.95Z" fill="#A1E0FF"/>
<path d="M76.1922 92.7276C75.7643 92.7293 75.074 92.7716 74.7428 92.5708C73.3936 91.7529 68.3719 86.3283 68.11 85.1782L68.4429 84.9551C70.0805 86.3699 74.6576 91.0076 76.1922 92.7276Z" fill="#FBFEFF"/>
<path d="M103.123 79.4775C115.342 65.197 140.654 65.5309 155.225 75.8616C157.169 77.2394 158.62 80.544 160.047 82.4649C164.169 88.1581 171.204 90.8025 177.483 93.2938C177.561 98.3896 177.314 99.3489 182.2 101.494C179.997 103.862 177.605 106.235 174.702 107.746C169.415 110.498 163.364 111.754 157.666 113.43C150.638 115.495 143.622 118.229 136.271 118.683C133.086 118.87 130.063 117.844 127.201 116.549C126.982 116.796 127.049 116.709 126.687 116.831C125.639 116.547 124.576 115.773 123.898 114.953C122.393 113.135 122.305 113.435 122.377 111.379C121.289 108.73 121.353 107.14 120.944 104.359C120.271 99.7785 115.856 101.802 115.317 105.348C112.866 121.448 128.781 127.694 142.159 125.578C136.691 140.659 144.372 148.274 150.64 161.34C157.47 175.572 158.184 193.167 152.831 207.996C151.47 211.703 149.632 215.216 147.36 218.448C147.884 214.598 148.795 198.078 147.309 195.33L147.152 195.691C146.215 194.254 146.273 191.092 145.887 189.367C145.165 186.129 143.972 183.276 142.873 180.175C140.724 174.112 136.798 166.073 133.117 160.852C129.607 155.873 125.228 151.158 121.153 146.623C115.428 140.253 110.648 135.173 106.578 127.411C105.609 125.562 102.588 120.156 103.228 118.313C103.326 118.031 103.413 117.854 103.404 117.548C103.401 117.469 103.395 117.39 103.391 117.31L103.666 117.216C103.419 115.705 103.195 114.191 102.994 112.673C100.537 92.8439 115.505 82.7963 132.644 92.704C133.44 93.1644 134.896 93.9434 135.558 94.4101C143.216 99.8154 147.306 96.5113 154.363 92.726C155.649 92.0385 158.182 91.7373 159.844 91.538L157.482 89.4982C157.11 89.6374 156.432 89.7267 156.148 89.4268C153.149 86.2455 151.306 82.4419 147.292 80.2544C145.84 79.4636 144.474 80.0937 143.399 79.5384C144.318 79.3971 144.521 79.5257 145.121 78.9881C143.728 78.8548 142.339 78.688 140.954 78.4876C137.64 79.2131 134.669 80.5465 131.491 81.7426C119.375 86.303 114.286 85.0824 103.123 79.4775Z" fill="#C1C0C0"/>
<path d="M103.666 117.216C108.307 134.8 120.592 143.509 131.411 157.021C138.358 165.698 146.692 183.805 147.309 195.33L147.152 195.691C146.215 194.254 146.273 191.092 145.887 189.367C145.165 186.129 143.972 183.276 142.873 180.175C140.724 174.112 136.798 166.073 133.117 160.852C129.607 155.873 125.228 151.158 121.153 146.623C115.428 140.253 110.648 135.173 106.578 127.411C105.609 125.562 102.588 120.156 103.228 118.313C103.326 118.031 103.413 117.854 103.404 117.548C103.401 117.469 103.395 117.39 103.391 117.31L103.666 117.216Z" fill="#A1E0FF"/>
<path d="M140.954 78.4876C150.469 77.554 152.107 83.7407 157.482 89.4982C157.11 89.6374 156.432 89.7267 156.148 89.4268C153.149 86.2455 151.306 82.4419 147.292 80.2544C145.84 79.4636 144.474 80.0937 143.399 79.5384C144.318 79.3971 144.521 79.5257 145.121 78.9881C143.728 78.8548 142.339 78.688 140.954 78.4876Z" fill="#A1E0FF"/>
<path d="M127.201 116.549C126.982 116.796 127.049 116.709 126.687 116.831C125.639 116.547 124.576 115.773 123.898 114.954C122.393 113.135 122.305 113.435 122.377 111.379C123.678 113.588 125.086 115.062 127.201 116.549Z" fill="#A1E0FF"/>
<path d="M102.039 133.479C106.66 140.057 109.925 144.15 115.358 150.161C118.707 153.867 123.682 159.209 126.535 163.063C133.044 172.019 137.42 182.342 139.327 193.246C141.35 204.401 142.243 224.998 132.936 233.334L133.281 233.495C131.609 235.161 128.744 236.902 126.299 236.325C125.502 235.425 125.869 234.909 126.256 233.85L126.449 234.378C126.674 233.74 126.885 231.423 126.973 230.665C127.713 224.25 128.061 218.748 127.044 212.337L126.854 213.018C126.829 212.563 126.87 212.509 126.584 212.148L126.043 212.735C124.239 200.259 117.177 192.806 109.853 183.29C108.786 181.905 106.328 179.133 107.133 177.614C103.504 169.953 102.367 165.647 102.498 157.033C102.613 149.466 102.729 141.001 102.039 133.479Z" fill="#C1C0C0"/>
<path d="M107.133 177.614C115.504 191.597 123.065 193.466 127.044 212.336L126.854 213.018C126.829 212.563 126.87 212.509 126.584 212.148L126.043 212.735C124.239 200.258 117.177 192.806 109.853 183.29C108.786 181.904 106.328 179.133 107.133 177.614Z" fill="#A1E0FF"/>
<path d="M132.936 233.333L133.281 233.495C131.609 235.161 128.744 236.902 126.299 236.325C125.502 235.425 125.869 234.909 126.256 233.85L126.449 234.378L126.601 235.141C128.25 235.762 131.386 234.089 132.936 233.333Z" fill="#FBFEFF"/>
<path d="M30.3681 106.001L30.8202 105.949C31.8451 106.806 37.5974 112.604 38.5012 113.702C39.339 114.307 43.2903 118.458 44.2584 119.453C48.9709 124.303 53.6516 129.184 58.3007 134.095C55.2001 136.932 51.6158 140.681 48.5834 143.704C42.5302 149.72 36.5172 155.775 30.5441 161.87C26.3478 148.854 25.6781 131.911 27.662 118.454C28.2923 114.18 29.4281 110.19 30.3681 106.001Z" fill="#EAE8E9"/>
<path d="M30.368 106.001L30.8201 105.949C31.845 106.806 37.5974 112.604 38.5011 113.702C37.5857 113.53 33.8711 109.427 32.446 108.761C31.3834 108.265 30.5923 107.265 30.368 106.001Z" fill="#C1C0C0"/>
<path d="M208.695 147.788L226.27 165.525C224.317 170.559 218.983 183.58 215.174 187.41L215.147 187.664L214.78 187.878C214.012 187.569 192.011 165.338 191.825 164.69L192.177 164.361C197.141 159.742 203.914 152.777 208.695 147.788Z" fill="#EAE8E9"/>
<path d="M192.177 164.361C194.897 166.589 200.965 172.924 203.579 175.605C206.766 178.875 212.489 184.205 215.174 187.409L215.147 187.664L214.78 187.877C214.012 187.569 192.011 165.338 191.825 164.689L192.177 164.361Z" fill="#A1E0FF"/>
<path d="M46.5225 73.0583C51.2022 77.4896 55.6871 82.3665 60.2848 86.9301C57.7553 91.377 51.917 115.411 50.7648 116.229C48.8391 116.299 43.0511 109.154 41.2294 107.46C39.909 106.232 32.9235 99.381 32.5411 98.3135L32.9027 98.0097C37.2162 87.988 40.1134 81.8898 46.5225 73.0583Z" fill="#EAE8E9"/>
<path d="M50.7648 116.229C48.8391 116.299 43.0511 109.154 41.2294 107.46C39.909 106.232 32.9235 99.381 32.5411 98.3136L32.9027 98.0098C34.8866 99.495 49.6768 114.515 50.7648 116.229Z" fill="#A1E0FF"/>
<path d="M51.3038 67.3977C60.029 57.4372 69.4274 49.4499 81.4596 43.5776C88.2226 60.1356 75.8142 70.7781 64.4314 80.8502C63.2141 79.5844 57.9927 73.9873 56.8958 73.152L56.3788 73.4568C55.4024 73.0928 50.6767 68.5126 50.7878 67.5041L51.3038 67.3977Z" fill="#EAE8E9"/>
<path d="M56.8958 73.152L56.3788 73.4568C55.4024 73.0928 50.6767 68.5126 50.7878 67.5041L51.3038 67.3977L56.8958 73.152Z" fill="#A1E0FF"/>
<path d="M198.884 127.941C207.924 119.45 216.969 109.357 225.832 100.511C227.803 106.298 229.053 111.942 230.253 117.931C223.208 124.776 216.268 131.811 209.285 138.73C208.932 138.843 208.932 138.79 208.526 138.734C206.871 137.564 200.468 130.621 198.999 128.76C198.686 128.362 198.789 128.413 198.884 127.941Z" fill="#EAE8E9"/>
<path d="M198.884 127.941C200.27 129.061 208.607 137.532 209.285 138.73C208.932 138.843 208.932 138.79 208.526 138.734C206.871 137.564 200.468 130.621 198.999 128.76C198.686 128.362 198.789 128.413 198.884 127.941Z" fill="#FBFEFF"/>
<path d="M64.4092 91.3047C69.5405 96.4233 77.8509 104.565 82.3296 109.985C76.0659 116.37 69.7518 122.705 63.3877 128.989L63.4166 129.14L63.2093 129.381C62.0552 129.114 55.9633 122.798 55.5753 121.633L55.8695 121.285C57.9817 114.818 59.5508 107.712 61.4483 101.135C62.389 97.8748 63.1256 94.4593 64.4092 91.3047Z" fill="#EAE8E9"/>
<path d="M63.3877 128.989L63.4166 129.14L63.2093 129.381C62.0552 129.114 55.9633 122.798 55.5753 121.633L55.8695 121.285C57.6131 122.776 61.9009 127.212 63.3877 128.989Z" fill="#FBFEFF"/>
<path d="M33.218 169.363C34.2319 167.592 42.8741 159.285 44.8424 157.236C49.5882 162.23 54.8889 167.493 59.4969 172.492C54.0087 177.074 48.0779 184.435 43.0188 188.71L42.7059 189.062C41.2238 188.803 31.3415 171.544 33.218 169.363Z" fill="#EAE8E9"/>
<path d="M33.218 169.363C35.6132 175.485 38.213 181.095 41.7689 186.64C42.1755 187.273 42.6621 188.05 43.0188 188.71L42.7059 189.062C41.2238 188.802 31.3415 171.544 33.218 169.363Z" fill="#FBFEFF"/>
<path d="M49.5795 152.615L63.238 139.115L78.01 154.147C73.4179 158.299 68.6359 163.375 64.1745 167.779C64.0587 167.786 63.5474 167.805 63.4933 167.764C61.2259 166.059 49.3173 154.484 49.5795 152.615Z" fill="#EAE8E9"/>
<path d="M49.5795 152.615C51.0633 153.681 62.7447 166.08 64.1745 167.779C64.0587 167.786 63.5474 167.805 63.4933 167.764C61.2259 166.059 49.3173 154.484 49.5795 152.615Z" fill="#A1E0FF"/>
<path d="M178.066 150.126C178.913 148.871 181.747 146.096 182.902 144.859C186.589 140.919 190.515 137.083 194.155 133.102C197.548 136.493 201.283 140.085 204.556 143.553C200.669 147.401 196.808 151.276 192.975 155.178C192.334 155.827 188.557 159.731 187.996 160.076C187.788 160.439 187.938 160.314 187.512 160.437C185.962 159.76 179.446 152.611 177.977 150.86C177.848 150.705 177.995 150.397 178.066 150.126Z" fill="#EAE8E9"/>
<path d="M187.996 160.076C187.788 160.439 187.938 160.314 187.512 160.437C185.962 159.76 179.446 152.611 177.977 150.86C177.848 150.705 177.995 150.397 178.066 150.126C179.182 150.993 186.941 158.752 187.996 160.076Z" fill="#FBFEFF"/>
<path d="M213.312 142.769C215.214 141.317 218.249 138.145 220.014 136.384L231.014 125.414C231.609 134.598 231.403 142.281 229.778 151.36C229.47 153.08 229.105 155.777 228.488 157.344C228.255 157.466 228.177 157.547 227.942 157.57C227.666 157.664 227.536 157.646 227.235 157.666C225.974 156.715 214.188 144.673 213.199 143.363L213.312 142.769Z" fill="#EAE8E9"/>
<path d="M213.312 142.77C214.773 143.806 226.789 155.968 227.942 157.57C227.666 157.664 227.536 157.646 227.235 157.666C225.974 156.715 214.188 144.673 213.199 143.363L213.312 142.77Z" fill="#A1E0FF"/>
<path d="M143.429 84.4018C145.091 83.7585 146.959 84.5877 147.595 86.251C148.232 87.9146 147.395 89.778 145.728 90.4066C144.07 91.0313 142.219 90.2001 141.586 88.5471C140.954 86.8941 141.778 85.041 143.429 84.4018Z" fill="#C1C0C0"/>
<path d="M105.925 66.9242C118.128 60.0258 132.919 59.2093 146.153 63.1773C153.7 65.4404 160.407 68.5938 164.394 75.5029C165.89 78.0938 167.99 80.6895 170.521 82.2616C174.009 84.8749 188.992 89.5733 190.97 91.4731L191.303 92.2884L191.193 92.8713C190.674 92.2003 189.546 91.5353 188.731 91.2102C181.399 88.2855 173.336 85.7027 167.107 80.7355C165.178 79.1962 163.753 75.7456 162.211 73.7836C159.891 70.8346 156.916 68.7775 153.639 67.0164C150.826 65.2941 147.705 64.7907 144.655 63.8328C133.247 60.2494 120.789 61.5497 109.858 66.1067C109.007 66.4614 108.22 66.7708 107.312 67.045C106.794 66.8324 106.5 66.899 105.925 66.9242Z" fill="#FBFEFF"/>
<path d="M155.193 130.631L156.887 128.421C161.952 134.024 167.716 139.336 172.901 144.841L172.526 145.22C170.999 145.006 159.766 132.031 156.412 130.014L155.193 130.631Z" fill="#A1E0FF"/>
<path d="M186.405 116.157C186.645 116.091 186.973 115.941 187.11 116.05C188.486 117.15 192.992 121.687 193.741 122.863L193.156 122.957C191.519 122.148 188.045 117.771 186.405 116.157Z" fill="#FBFEFF"/>
<path d="M128.277 0.537005L128.623 0L128.992 0.119831C130.412 3.52602 131.702 7.91373 133.058 11.4774C137.868 24.1156 141.995 37.8264 147.008 50.3249L145.052 48.9092C141.673 47.354 132.525 41.5762 129.086 39.4229C123.09 43.0864 117.052 46.6791 110.972 50.2004C112.246 47.4604 113.611 43.1473 114.636 40.2176L121.088 21.5937L125.995 7.69775C126.643 5.84524 128.013 2.24212 128.277 0.537005Z" fill="#D8902D"/>
<path d="M128.277 0.537005L128.623 0L128.992 0.119831C130.412 3.52602 131.702 7.91373 133.058 11.4774C137.868 24.1156 141.995 37.8264 147.008 50.3249L145.052 48.9092C144.506 46.0077 141.372 38.3386 140.32 35.2238C138.066 28.5248 135.575 21.7422 133.195 15.1129C132.421 12.9553 128.124 1.9809 128.277 0.537005Z" fill="#79420A"/>
<path d="M127.731 16.7582L128.12 16.0403L128.445 16.1508C129.005 17.6283 128.86 33.7061 128.42 34.1797C127.103 35.8055 121.751 38.1894 119.662 39.1564L119.828 38.1058C120.201 35.841 126.626 17.5581 127.731 16.7582Z" fill="#EAE8E9"/>
<path d="M119.662 39.1562L119.828 38.1057C120.201 35.8409 126.626 17.5579 127.731 16.7581C125.663 23.6588 122.659 31.4395 120.185 38.2896C121.771 37.4433 126.966 34.5684 128.42 34.1795C127.103 35.8054 121.751 38.1893 119.662 39.1562Z" fill="#79420A"/>
</svg>
